; NON-PLATED HOLES START AT T1
; THROUGH (PLATED) HOLES START AT T100
M48
INCH
T1C0.086614
T100C0.040000
T101C0.040158
T102C0.064567
%
T1
X034867Y001351
X034898Y037113
X001294Y001405
X001276Y037099
T100
X003997Y016298
X003997Y010298
X009997Y009298
X003997Y002298
X003997Y003298
X003997Y017298
X003997Y015298
X003997Y014298
X003997Y011298
X003997Y013298
X003997Y005298
X003997Y008298
X009997Y012298
X009997Y008298
X009997Y010298
X003997Y009298
X009997Y011298
X003997Y006298
X003997Y004298
X003997Y012298
X009997Y006298
X009997Y013298
X009997Y007298
X003997Y007298
T101
X021145Y036618
X003728Y022283
X012728Y030283
X029536Y001897
X003728Y032283
X012728Y027283
X012728Y029283
X028060Y001897
X003728Y027283
X012728Y023283
X012728Y022283
X012728Y033283
X003728Y028283
X031013Y001897
X021145Y001893
X012728Y034283
X003728Y025283
X019669Y036618
X012728Y026283
X003728Y029283
X003728Y034283
X003728Y026283
X003728Y031283
X003728Y035283
X022621Y001893
X012728Y032283
X031013Y036622
X019669Y001893
X012728Y036283
X032489Y001897
X012728Y025283
X003728Y033283
X018192Y001893
X003728Y030283
X003728Y036283
X029536Y036622
X012728Y028283
X003728Y023283
X012728Y031283
X012728Y024283
X012728Y035283
X003728Y024283
T102
X030274Y029457
X020407Y009059
X030274Y009063
X020407Y029452
T00
M30
