G04 MADE WITH FRITZING*
G04 WWW.FRITZING.ORG*
G04 DOUBLE SIDED*
G04 HOLES PLATED*
G04 CONTOUR ON CENTER OF CONTOUR VECTOR*
%ASAXBY*%
%FSLAX23Y23*%
%MOIN*%
%OFA0B0*%
%SFA1.0B1.0*%
%ADD10C,0.075000*%
%ADD11C,0.071654*%
%ADD12C,0.096063*%
%ADD13C,0.074000*%
%ADD14C,0.024000*%
%LNCOPPER0*%
G90*
G70*
G54D10*
X3181Y3714D03*
G54D11*
X373Y3628D03*
X373Y3528D03*
X373Y3428D03*
X373Y3328D03*
X373Y3228D03*
X373Y3128D03*
X373Y3028D03*
X373Y2928D03*
X373Y2828D03*
X373Y2728D03*
X373Y2628D03*
X373Y2528D03*
X373Y2428D03*
X373Y2328D03*
X373Y2228D03*
X1273Y3628D03*
X1273Y3528D03*
X1273Y3428D03*
X1273Y3328D03*
X1273Y3228D03*
X1273Y3128D03*
X1273Y3028D03*
X1273Y2928D03*
X1273Y2828D03*
X1273Y2728D03*
X1273Y2628D03*
X1273Y2528D03*
X1273Y2428D03*
X1273Y2328D03*
X1273Y2228D03*
X1819Y189D03*
X1967Y189D03*
X2115Y189D03*
X2262Y189D03*
X1967Y3662D03*
X2115Y3662D03*
G54D12*
X2041Y906D03*
X2041Y2945D03*
G54D11*
X2806Y190D03*
X2954Y190D03*
X3101Y190D03*
X3249Y190D03*
X2954Y3662D03*
X3101Y3662D03*
G54D12*
X3027Y906D03*
X3027Y2946D03*
G54D13*
X400Y230D03*
X400Y330D03*
X400Y430D03*
X400Y530D03*
X400Y630D03*
X400Y730D03*
X400Y830D03*
X400Y930D03*
X400Y1030D03*
X400Y1130D03*
X400Y1230D03*
X400Y1330D03*
X400Y1430D03*
X400Y1530D03*
X400Y1630D03*
X400Y1730D03*
X1000Y630D03*
X1000Y730D03*
X1000Y830D03*
X1000Y930D03*
X1000Y1030D03*
X1000Y1130D03*
X1000Y1230D03*
X1000Y1330D03*
G54D14*
X2039Y3127D02*
X1293Y3128D01*
D02*
X2040Y2978D02*
X2039Y3127D01*
D02*
X2041Y938D02*
X2041Y2913D01*
D02*
X1964Y909D02*
X2008Y907D01*
D02*
X1967Y209D02*
X1964Y909D01*
D02*
X2995Y906D02*
X2073Y906D01*
D02*
X2995Y2946D02*
X2073Y2945D01*
D02*
X2948Y904D02*
X2954Y210D01*
D02*
X2995Y905D02*
X2948Y904D01*
D02*
X2041Y874D02*
X2039Y630D01*
D02*
X2039Y630D02*
X1020Y630D01*
G36*
X40Y3799D02*
X40Y3765D01*
X3498Y3765D01*
X3498Y3763D01*
X3506Y3763D01*
X3506Y3761D01*
X3512Y3761D01*
X3512Y3759D01*
X3516Y3759D01*
X3516Y3757D01*
X3518Y3757D01*
X3518Y3755D01*
X3522Y3755D01*
X3522Y3753D01*
X3524Y3753D01*
X3524Y3751D01*
X3526Y3751D01*
X3526Y3749D01*
X3528Y3749D01*
X3528Y3747D01*
X3530Y3747D01*
X3530Y3745D01*
X3532Y3745D01*
X3532Y3743D01*
X3534Y3743D01*
X3534Y3739D01*
X3536Y3739D01*
X3536Y3735D01*
X3538Y3735D01*
X3538Y3731D01*
X3540Y3731D01*
X3540Y3725D01*
X3542Y3725D01*
X3542Y3715D01*
X3544Y3715D01*
X3544Y3709D01*
X3542Y3709D01*
X3542Y3697D01*
X3540Y3697D01*
X3540Y3691D01*
X3538Y3691D01*
X3538Y3687D01*
X3536Y3687D01*
X3536Y3683D01*
X3534Y3683D01*
X3534Y3681D01*
X3532Y3681D01*
X3532Y3679D01*
X3530Y3679D01*
X3530Y3675D01*
X3528Y3675D01*
X3528Y3673D01*
X3526Y3673D01*
X3526Y3671D01*
X3522Y3671D01*
X3522Y3669D01*
X3520Y3669D01*
X3520Y3667D01*
X3516Y3667D01*
X3516Y3665D01*
X3514Y3665D01*
X3514Y3663D01*
X3508Y3663D01*
X3508Y3661D01*
X3502Y3661D01*
X3502Y3659D01*
X3578Y3659D01*
X3578Y3799D01*
X40Y3799D01*
G37*
D02*
G36*
X40Y3765D02*
X40Y3763D01*
X140Y3763D01*
X140Y3761D01*
X146Y3761D01*
X146Y3759D01*
X150Y3759D01*
X150Y3757D01*
X154Y3757D01*
X154Y3755D01*
X158Y3755D01*
X158Y3753D01*
X160Y3753D01*
X160Y3751D01*
X162Y3751D01*
X162Y3749D01*
X166Y3749D01*
X166Y3745D01*
X168Y3745D01*
X168Y3743D01*
X170Y3743D01*
X170Y3741D01*
X172Y3741D01*
X172Y3737D01*
X174Y3737D01*
X174Y3733D01*
X176Y3733D01*
X176Y3729D01*
X178Y3729D01*
X178Y3723D01*
X180Y3723D01*
X180Y3709D01*
X3106Y3709D01*
X3106Y3707D01*
X3114Y3707D01*
X3114Y3705D01*
X3120Y3705D01*
X3120Y3703D01*
X3124Y3703D01*
X3124Y3701D01*
X3128Y3701D01*
X3128Y3699D01*
X3130Y3699D01*
X3130Y3697D01*
X3132Y3697D01*
X3132Y3695D01*
X3134Y3695D01*
X3134Y3693D01*
X3136Y3693D01*
X3136Y3691D01*
X3138Y3691D01*
X3138Y3689D01*
X3140Y3689D01*
X3140Y3685D01*
X3142Y3685D01*
X3142Y3681D01*
X3144Y3681D01*
X3144Y3675D01*
X3146Y3675D01*
X3146Y3665D01*
X3148Y3665D01*
X3148Y3661D01*
X3146Y3661D01*
X3146Y3659D01*
X3476Y3659D01*
X3476Y3661D01*
X3470Y3661D01*
X3470Y3663D01*
X3466Y3663D01*
X3466Y3665D01*
X3462Y3665D01*
X3462Y3667D01*
X3460Y3667D01*
X3460Y3669D01*
X3456Y3669D01*
X3456Y3671D01*
X3454Y3671D01*
X3454Y3673D01*
X3452Y3673D01*
X3452Y3675D01*
X3450Y3675D01*
X3450Y3677D01*
X3448Y3677D01*
X3448Y3681D01*
X3446Y3681D01*
X3446Y3683D01*
X3444Y3683D01*
X3444Y3687D01*
X3442Y3687D01*
X3442Y3691D01*
X3440Y3691D01*
X3440Y3697D01*
X3438Y3697D01*
X3438Y3705D01*
X3436Y3705D01*
X3436Y3717D01*
X3438Y3717D01*
X3438Y3727D01*
X3440Y3727D01*
X3440Y3733D01*
X3442Y3733D01*
X3442Y3737D01*
X3444Y3737D01*
X3444Y3739D01*
X3446Y3739D01*
X3446Y3743D01*
X3448Y3743D01*
X3448Y3745D01*
X3450Y3745D01*
X3450Y3747D01*
X3452Y3747D01*
X3452Y3749D01*
X3454Y3749D01*
X3454Y3751D01*
X3456Y3751D01*
X3456Y3753D01*
X3458Y3753D01*
X3458Y3755D01*
X3460Y3755D01*
X3460Y3757D01*
X3464Y3757D01*
X3464Y3759D01*
X3468Y3759D01*
X3468Y3761D01*
X3474Y3761D01*
X3474Y3763D01*
X3482Y3763D01*
X3482Y3765D01*
X40Y3765D01*
G37*
D02*
G36*
X40Y3763D02*
X40Y3657D01*
X118Y3657D01*
X118Y3659D01*
X110Y3659D01*
X110Y3661D01*
X106Y3661D01*
X106Y3663D01*
X102Y3663D01*
X102Y3665D01*
X98Y3665D01*
X98Y3667D01*
X96Y3667D01*
X96Y3669D01*
X92Y3669D01*
X92Y3671D01*
X90Y3671D01*
X90Y3673D01*
X88Y3673D01*
X88Y3677D01*
X86Y3677D01*
X86Y3679D01*
X84Y3679D01*
X84Y3681D01*
X82Y3681D01*
X82Y3685D01*
X80Y3685D01*
X80Y3689D01*
X78Y3689D01*
X78Y3693D01*
X76Y3693D01*
X76Y3703D01*
X74Y3703D01*
X74Y3717D01*
X76Y3717D01*
X76Y3727D01*
X78Y3727D01*
X78Y3731D01*
X80Y3731D01*
X80Y3735D01*
X82Y3735D01*
X82Y3739D01*
X84Y3739D01*
X84Y3741D01*
X86Y3741D01*
X86Y3745D01*
X88Y3745D01*
X88Y3747D01*
X90Y3747D01*
X90Y3749D01*
X92Y3749D01*
X92Y3751D01*
X96Y3751D01*
X96Y3753D01*
X98Y3753D01*
X98Y3755D01*
X102Y3755D01*
X102Y3757D01*
X104Y3757D01*
X104Y3759D01*
X110Y3759D01*
X110Y3761D01*
X116Y3761D01*
X116Y3763D01*
X40Y3763D01*
G37*
D02*
G36*
X180Y3709D02*
X180Y3707D01*
X2126Y3707D01*
X2126Y3705D01*
X2132Y3705D01*
X2132Y3703D01*
X2136Y3703D01*
X2136Y3701D01*
X2140Y3701D01*
X2140Y3699D01*
X2142Y3699D01*
X2142Y3697D01*
X2144Y3697D01*
X2144Y3695D01*
X2148Y3695D01*
X2148Y3691D01*
X2150Y3691D01*
X2150Y3689D01*
X2152Y3689D01*
X2152Y3687D01*
X2154Y3687D01*
X2154Y3683D01*
X2156Y3683D01*
X2156Y3679D01*
X2158Y3679D01*
X2158Y3673D01*
X2160Y3673D01*
X2160Y3651D01*
X2158Y3651D01*
X2158Y3645D01*
X2156Y3645D01*
X2156Y3641D01*
X2154Y3641D01*
X2154Y3637D01*
X2152Y3637D01*
X2152Y3635D01*
X2150Y3635D01*
X2150Y3633D01*
X2148Y3633D01*
X2148Y3629D01*
X2144Y3629D01*
X2144Y3627D01*
X2142Y3627D01*
X2142Y3625D01*
X2140Y3625D01*
X2140Y3623D01*
X2136Y3623D01*
X2136Y3621D01*
X2132Y3621D01*
X2132Y3619D01*
X2126Y3619D01*
X2126Y3617D01*
X2944Y3617D01*
X2944Y3619D01*
X2936Y3619D01*
X2936Y3621D01*
X2932Y3621D01*
X2932Y3623D01*
X2928Y3623D01*
X2928Y3625D01*
X2926Y3625D01*
X2926Y3627D01*
X2924Y3627D01*
X2924Y3629D01*
X2922Y3629D01*
X2922Y3631D01*
X2920Y3631D01*
X2920Y3633D01*
X2918Y3633D01*
X2918Y3635D01*
X2916Y3635D01*
X2916Y3639D01*
X2914Y3639D01*
X2914Y3641D01*
X2912Y3641D01*
X2912Y3647D01*
X2910Y3647D01*
X2910Y3653D01*
X2908Y3653D01*
X2908Y3673D01*
X2910Y3673D01*
X2910Y3679D01*
X2912Y3679D01*
X2912Y3683D01*
X2914Y3683D01*
X2914Y3687D01*
X2916Y3687D01*
X2916Y3689D01*
X2918Y3689D01*
X2918Y3693D01*
X2920Y3693D01*
X2920Y3695D01*
X2922Y3695D01*
X2922Y3697D01*
X2926Y3697D01*
X2926Y3699D01*
X2928Y3699D01*
X2928Y3701D01*
X2932Y3701D01*
X2932Y3703D01*
X2934Y3703D01*
X2934Y3705D01*
X2940Y3705D01*
X2940Y3707D01*
X2950Y3707D01*
X2950Y3709D01*
X180Y3709D01*
G37*
D02*
G36*
X2958Y3709D02*
X2958Y3707D01*
X2968Y3707D01*
X2968Y3705D01*
X2972Y3705D01*
X2972Y3703D01*
X2976Y3703D01*
X2976Y3701D01*
X2980Y3701D01*
X2980Y3699D01*
X2982Y3699D01*
X2982Y3697D01*
X2984Y3697D01*
X2984Y3695D01*
X2986Y3695D01*
X2986Y3693D01*
X2988Y3693D01*
X2988Y3691D01*
X2990Y3691D01*
X2990Y3689D01*
X2992Y3689D01*
X2992Y3685D01*
X2994Y3685D01*
X2994Y3681D01*
X2996Y3681D01*
X2996Y3677D01*
X2998Y3677D01*
X2998Y3669D01*
X3000Y3669D01*
X3000Y3657D01*
X2998Y3657D01*
X2998Y3649D01*
X2996Y3649D01*
X2996Y3643D01*
X2994Y3643D01*
X2994Y3639D01*
X2992Y3639D01*
X2992Y3637D01*
X2990Y3637D01*
X2990Y3633D01*
X2988Y3633D01*
X2988Y3631D01*
X2986Y3631D01*
X2986Y3629D01*
X2984Y3629D01*
X2984Y3627D01*
X2982Y3627D01*
X2982Y3625D01*
X2978Y3625D01*
X2978Y3623D01*
X2974Y3623D01*
X2974Y3621D01*
X2970Y3621D01*
X2970Y3619D01*
X2964Y3619D01*
X2964Y3617D01*
X3090Y3617D01*
X3090Y3619D01*
X3084Y3619D01*
X3084Y3621D01*
X3080Y3621D01*
X3080Y3623D01*
X3076Y3623D01*
X3076Y3625D01*
X3074Y3625D01*
X3074Y3627D01*
X3072Y3627D01*
X3072Y3629D01*
X3070Y3629D01*
X3070Y3631D01*
X3068Y3631D01*
X3068Y3633D01*
X3066Y3633D01*
X3066Y3635D01*
X3064Y3635D01*
X3064Y3637D01*
X3062Y3637D01*
X3062Y3641D01*
X3060Y3641D01*
X3060Y3645D01*
X3058Y3645D01*
X3058Y3651D01*
X3056Y3651D01*
X3056Y3673D01*
X3058Y3673D01*
X3058Y3679D01*
X3060Y3679D01*
X3060Y3683D01*
X3062Y3683D01*
X3062Y3687D01*
X3064Y3687D01*
X3064Y3691D01*
X3066Y3691D01*
X3066Y3693D01*
X3068Y3693D01*
X3068Y3695D01*
X3070Y3695D01*
X3070Y3697D01*
X3072Y3697D01*
X3072Y3699D01*
X3076Y3699D01*
X3076Y3701D01*
X3078Y3701D01*
X3078Y3703D01*
X3082Y3703D01*
X3082Y3705D01*
X3088Y3705D01*
X3088Y3707D01*
X3096Y3707D01*
X3096Y3709D01*
X2958Y3709D01*
G37*
D02*
G36*
X180Y3707D02*
X180Y3697D01*
X178Y3697D01*
X178Y3691D01*
X176Y3691D01*
X176Y3687D01*
X174Y3687D01*
X174Y3683D01*
X172Y3683D01*
X172Y3679D01*
X170Y3679D01*
X170Y3677D01*
X168Y3677D01*
X168Y3675D01*
X1278Y3675D01*
X1278Y3673D01*
X1286Y3673D01*
X1286Y3671D01*
X1292Y3671D01*
X1292Y3669D01*
X1296Y3669D01*
X1296Y3667D01*
X1300Y3667D01*
X1300Y3665D01*
X1302Y3665D01*
X1302Y3663D01*
X1304Y3663D01*
X1304Y3661D01*
X1306Y3661D01*
X1306Y3659D01*
X1308Y3659D01*
X1308Y3657D01*
X1310Y3657D01*
X1310Y3653D01*
X1312Y3653D01*
X1312Y3651D01*
X1314Y3651D01*
X1314Y3647D01*
X1316Y3647D01*
X1316Y3639D01*
X1318Y3639D01*
X1318Y3617D01*
X1956Y3617D01*
X1956Y3619D01*
X1948Y3619D01*
X1948Y3621D01*
X1946Y3621D01*
X1946Y3623D01*
X1942Y3623D01*
X1942Y3625D01*
X1938Y3625D01*
X1938Y3627D01*
X1936Y3627D01*
X1936Y3629D01*
X1934Y3629D01*
X1934Y3631D01*
X1932Y3631D01*
X1932Y3633D01*
X1930Y3633D01*
X1930Y3637D01*
X1928Y3637D01*
X1928Y3639D01*
X1926Y3639D01*
X1926Y3643D01*
X1924Y3643D01*
X1924Y3649D01*
X1922Y3649D01*
X1922Y3675D01*
X1924Y3675D01*
X1924Y3681D01*
X1926Y3681D01*
X1926Y3685D01*
X1928Y3685D01*
X1928Y3687D01*
X1930Y3687D01*
X1930Y3691D01*
X1932Y3691D01*
X1932Y3693D01*
X1934Y3693D01*
X1934Y3695D01*
X1936Y3695D01*
X1936Y3697D01*
X1938Y3697D01*
X1938Y3699D01*
X1942Y3699D01*
X1942Y3701D01*
X1946Y3701D01*
X1946Y3703D01*
X1948Y3703D01*
X1948Y3705D01*
X1954Y3705D01*
X1954Y3707D01*
X180Y3707D01*
G37*
D02*
G36*
X1978Y3707D02*
X1978Y3705D01*
X1986Y3705D01*
X1986Y3703D01*
X1988Y3703D01*
X1988Y3701D01*
X1992Y3701D01*
X1992Y3699D01*
X1994Y3699D01*
X1994Y3697D01*
X1998Y3697D01*
X1998Y3695D01*
X2000Y3695D01*
X2000Y3693D01*
X2002Y3693D01*
X2002Y3689D01*
X2004Y3689D01*
X2004Y3687D01*
X2006Y3687D01*
X2006Y3683D01*
X2008Y3683D01*
X2008Y3679D01*
X2010Y3679D01*
X2010Y3673D01*
X2012Y3673D01*
X2012Y3651D01*
X2010Y3651D01*
X2010Y3645D01*
X2008Y3645D01*
X2008Y3641D01*
X2006Y3641D01*
X2006Y3637D01*
X2004Y3637D01*
X2004Y3635D01*
X2002Y3635D01*
X2002Y3631D01*
X2000Y3631D01*
X2000Y3629D01*
X1998Y3629D01*
X1998Y3627D01*
X1994Y3627D01*
X1994Y3625D01*
X1992Y3625D01*
X1992Y3623D01*
X1988Y3623D01*
X1988Y3621D01*
X1986Y3621D01*
X1986Y3619D01*
X1978Y3619D01*
X1978Y3617D01*
X2102Y3617D01*
X2102Y3619D01*
X2096Y3619D01*
X2096Y3621D01*
X2092Y3621D01*
X2092Y3623D01*
X2090Y3623D01*
X2090Y3625D01*
X2086Y3625D01*
X2086Y3627D01*
X2084Y3627D01*
X2084Y3629D01*
X2082Y3629D01*
X2082Y3631D01*
X2080Y3631D01*
X2080Y3633D01*
X2078Y3633D01*
X2078Y3635D01*
X2076Y3635D01*
X2076Y3639D01*
X2074Y3639D01*
X2074Y3643D01*
X2072Y3643D01*
X2072Y3649D01*
X2070Y3649D01*
X2070Y3657D01*
X2068Y3657D01*
X2068Y3667D01*
X2070Y3667D01*
X2070Y3675D01*
X2072Y3675D01*
X2072Y3681D01*
X2074Y3681D01*
X2074Y3685D01*
X2076Y3685D01*
X2076Y3689D01*
X2078Y3689D01*
X2078Y3691D01*
X2080Y3691D01*
X2080Y3693D01*
X2082Y3693D01*
X2082Y3695D01*
X2084Y3695D01*
X2084Y3697D01*
X2086Y3697D01*
X2086Y3699D01*
X2090Y3699D01*
X2090Y3701D01*
X2092Y3701D01*
X2092Y3703D01*
X2096Y3703D01*
X2096Y3705D01*
X2102Y3705D01*
X2102Y3707D01*
X1978Y3707D01*
G37*
D02*
G36*
X166Y3675D02*
X166Y3673D01*
X164Y3673D01*
X164Y3671D01*
X162Y3671D01*
X162Y3669D01*
X160Y3669D01*
X160Y3667D01*
X158Y3667D01*
X158Y3665D01*
X154Y3665D01*
X154Y3663D01*
X150Y3663D01*
X150Y3661D01*
X146Y3661D01*
X146Y3659D01*
X138Y3659D01*
X138Y3657D01*
X338Y3657D01*
X338Y3659D01*
X340Y3659D01*
X340Y3661D01*
X342Y3661D01*
X342Y3663D01*
X344Y3663D01*
X344Y3665D01*
X346Y3665D01*
X346Y3667D01*
X350Y3667D01*
X350Y3669D01*
X354Y3669D01*
X354Y3671D01*
X358Y3671D01*
X358Y3673D01*
X368Y3673D01*
X368Y3675D01*
X166Y3675D01*
G37*
D02*
G36*
X378Y3675D02*
X378Y3673D01*
X386Y3673D01*
X386Y3671D01*
X392Y3671D01*
X392Y3669D01*
X396Y3669D01*
X396Y3667D01*
X400Y3667D01*
X400Y3665D01*
X402Y3665D01*
X402Y3663D01*
X404Y3663D01*
X404Y3661D01*
X406Y3661D01*
X406Y3659D01*
X408Y3659D01*
X408Y3657D01*
X410Y3657D01*
X410Y3653D01*
X412Y3653D01*
X412Y3651D01*
X414Y3651D01*
X414Y3647D01*
X416Y3647D01*
X416Y3639D01*
X418Y3639D01*
X418Y3617D01*
X416Y3617D01*
X416Y3611D01*
X414Y3611D01*
X414Y3607D01*
X412Y3607D01*
X412Y3603D01*
X410Y3603D01*
X410Y3601D01*
X408Y3601D01*
X408Y3599D01*
X406Y3599D01*
X406Y3597D01*
X404Y3597D01*
X404Y3595D01*
X402Y3595D01*
X402Y3593D01*
X400Y3593D01*
X400Y3591D01*
X398Y3591D01*
X398Y3589D01*
X394Y3589D01*
X394Y3569D01*
X396Y3569D01*
X396Y3567D01*
X400Y3567D01*
X400Y3565D01*
X402Y3565D01*
X402Y3563D01*
X404Y3563D01*
X404Y3561D01*
X406Y3561D01*
X406Y3559D01*
X408Y3559D01*
X408Y3557D01*
X410Y3557D01*
X410Y3553D01*
X412Y3553D01*
X412Y3551D01*
X414Y3551D01*
X414Y3547D01*
X416Y3547D01*
X416Y3539D01*
X418Y3539D01*
X418Y3517D01*
X416Y3517D01*
X416Y3511D01*
X414Y3511D01*
X414Y3507D01*
X412Y3507D01*
X412Y3503D01*
X410Y3503D01*
X410Y3501D01*
X408Y3501D01*
X408Y3499D01*
X406Y3499D01*
X406Y3497D01*
X404Y3497D01*
X404Y3495D01*
X402Y3495D01*
X402Y3493D01*
X400Y3493D01*
X400Y3491D01*
X398Y3491D01*
X398Y3489D01*
X394Y3489D01*
X394Y3469D01*
X396Y3469D01*
X396Y3467D01*
X400Y3467D01*
X400Y3465D01*
X402Y3465D01*
X402Y3463D01*
X404Y3463D01*
X404Y3461D01*
X406Y3461D01*
X406Y3459D01*
X408Y3459D01*
X408Y3457D01*
X410Y3457D01*
X410Y3453D01*
X412Y3453D01*
X412Y3451D01*
X414Y3451D01*
X414Y3447D01*
X416Y3447D01*
X416Y3439D01*
X418Y3439D01*
X418Y3417D01*
X416Y3417D01*
X416Y3411D01*
X414Y3411D01*
X414Y3407D01*
X412Y3407D01*
X412Y3403D01*
X410Y3403D01*
X410Y3401D01*
X408Y3401D01*
X408Y3399D01*
X406Y3399D01*
X406Y3397D01*
X404Y3397D01*
X404Y3395D01*
X402Y3395D01*
X402Y3393D01*
X400Y3393D01*
X400Y3391D01*
X398Y3391D01*
X398Y3389D01*
X394Y3389D01*
X394Y3369D01*
X396Y3369D01*
X396Y3367D01*
X400Y3367D01*
X400Y3365D01*
X402Y3365D01*
X402Y3363D01*
X404Y3363D01*
X404Y3361D01*
X406Y3361D01*
X406Y3359D01*
X408Y3359D01*
X408Y3357D01*
X410Y3357D01*
X410Y3353D01*
X412Y3353D01*
X412Y3351D01*
X414Y3351D01*
X414Y3347D01*
X416Y3347D01*
X416Y3339D01*
X418Y3339D01*
X418Y3317D01*
X416Y3317D01*
X416Y3311D01*
X414Y3311D01*
X414Y3307D01*
X412Y3307D01*
X412Y3303D01*
X410Y3303D01*
X410Y3301D01*
X408Y3301D01*
X408Y3299D01*
X406Y3299D01*
X406Y3297D01*
X404Y3297D01*
X404Y3295D01*
X402Y3295D01*
X402Y3293D01*
X400Y3293D01*
X400Y3291D01*
X398Y3291D01*
X398Y3289D01*
X394Y3289D01*
X394Y3269D01*
X396Y3269D01*
X396Y3267D01*
X400Y3267D01*
X400Y3265D01*
X402Y3265D01*
X402Y3263D01*
X404Y3263D01*
X404Y3261D01*
X406Y3261D01*
X406Y3259D01*
X408Y3259D01*
X408Y3257D01*
X410Y3257D01*
X410Y3253D01*
X412Y3253D01*
X412Y3251D01*
X414Y3251D01*
X414Y3247D01*
X416Y3247D01*
X416Y3239D01*
X418Y3239D01*
X418Y3217D01*
X416Y3217D01*
X416Y3211D01*
X414Y3211D01*
X414Y3207D01*
X412Y3207D01*
X412Y3203D01*
X410Y3203D01*
X410Y3201D01*
X408Y3201D01*
X408Y3199D01*
X406Y3199D01*
X406Y3197D01*
X404Y3197D01*
X404Y3195D01*
X402Y3195D01*
X402Y3193D01*
X400Y3193D01*
X400Y3191D01*
X398Y3191D01*
X398Y3189D01*
X394Y3189D01*
X394Y3169D01*
X396Y3169D01*
X396Y3167D01*
X400Y3167D01*
X400Y3165D01*
X402Y3165D01*
X402Y3163D01*
X404Y3163D01*
X404Y3161D01*
X406Y3161D01*
X406Y3159D01*
X408Y3159D01*
X408Y3157D01*
X410Y3157D01*
X410Y3153D01*
X412Y3153D01*
X412Y3151D01*
X414Y3151D01*
X414Y3147D01*
X416Y3147D01*
X416Y3139D01*
X418Y3139D01*
X418Y3117D01*
X416Y3117D01*
X416Y3111D01*
X414Y3111D01*
X414Y3107D01*
X412Y3107D01*
X412Y3103D01*
X410Y3103D01*
X410Y3101D01*
X408Y3101D01*
X408Y3099D01*
X406Y3099D01*
X406Y3097D01*
X404Y3097D01*
X404Y3095D01*
X402Y3095D01*
X402Y3093D01*
X400Y3093D01*
X400Y3091D01*
X398Y3091D01*
X398Y3089D01*
X394Y3089D01*
X394Y3069D01*
X396Y3069D01*
X396Y3067D01*
X400Y3067D01*
X400Y3065D01*
X402Y3065D01*
X402Y3063D01*
X404Y3063D01*
X404Y3061D01*
X406Y3061D01*
X406Y3059D01*
X408Y3059D01*
X408Y3057D01*
X410Y3057D01*
X410Y3053D01*
X412Y3053D01*
X412Y3051D01*
X414Y3051D01*
X414Y3047D01*
X416Y3047D01*
X416Y3039D01*
X418Y3039D01*
X418Y3017D01*
X416Y3017D01*
X416Y3011D01*
X414Y3011D01*
X414Y3007D01*
X412Y3007D01*
X412Y3003D01*
X410Y3003D01*
X410Y3001D01*
X408Y3001D01*
X408Y2999D01*
X406Y2999D01*
X406Y2997D01*
X404Y2997D01*
X404Y2995D01*
X402Y2995D01*
X402Y2993D01*
X400Y2993D01*
X400Y2991D01*
X398Y2991D01*
X398Y2989D01*
X394Y2989D01*
X394Y2969D01*
X396Y2969D01*
X396Y2967D01*
X400Y2967D01*
X400Y2965D01*
X402Y2965D01*
X402Y2963D01*
X404Y2963D01*
X404Y2961D01*
X406Y2961D01*
X406Y2959D01*
X408Y2959D01*
X408Y2957D01*
X410Y2957D01*
X410Y2953D01*
X412Y2953D01*
X412Y2951D01*
X414Y2951D01*
X414Y2947D01*
X416Y2947D01*
X416Y2939D01*
X418Y2939D01*
X418Y2917D01*
X416Y2917D01*
X416Y2911D01*
X414Y2911D01*
X414Y2907D01*
X412Y2907D01*
X412Y2903D01*
X410Y2903D01*
X410Y2901D01*
X408Y2901D01*
X408Y2899D01*
X406Y2899D01*
X406Y2897D01*
X404Y2897D01*
X404Y2895D01*
X402Y2895D01*
X402Y2893D01*
X400Y2893D01*
X400Y2891D01*
X398Y2891D01*
X398Y2889D01*
X394Y2889D01*
X394Y2869D01*
X396Y2869D01*
X396Y2867D01*
X400Y2867D01*
X400Y2865D01*
X402Y2865D01*
X402Y2863D01*
X404Y2863D01*
X404Y2861D01*
X406Y2861D01*
X406Y2859D01*
X408Y2859D01*
X408Y2857D01*
X410Y2857D01*
X410Y2853D01*
X412Y2853D01*
X412Y2851D01*
X414Y2851D01*
X414Y2847D01*
X416Y2847D01*
X416Y2839D01*
X418Y2839D01*
X418Y2817D01*
X416Y2817D01*
X416Y2811D01*
X414Y2811D01*
X414Y2807D01*
X412Y2807D01*
X412Y2803D01*
X410Y2803D01*
X410Y2801D01*
X408Y2801D01*
X408Y2799D01*
X406Y2799D01*
X406Y2797D01*
X404Y2797D01*
X404Y2795D01*
X402Y2795D01*
X402Y2793D01*
X400Y2793D01*
X400Y2791D01*
X398Y2791D01*
X398Y2789D01*
X394Y2789D01*
X394Y2769D01*
X396Y2769D01*
X396Y2767D01*
X400Y2767D01*
X400Y2765D01*
X402Y2765D01*
X402Y2763D01*
X404Y2763D01*
X404Y2761D01*
X406Y2761D01*
X406Y2759D01*
X408Y2759D01*
X408Y2757D01*
X410Y2757D01*
X410Y2753D01*
X412Y2753D01*
X412Y2751D01*
X414Y2751D01*
X414Y2747D01*
X416Y2747D01*
X416Y2739D01*
X418Y2739D01*
X418Y2717D01*
X416Y2717D01*
X416Y2711D01*
X414Y2711D01*
X414Y2707D01*
X412Y2707D01*
X412Y2703D01*
X410Y2703D01*
X410Y2701D01*
X408Y2701D01*
X408Y2699D01*
X406Y2699D01*
X406Y2697D01*
X404Y2697D01*
X404Y2695D01*
X402Y2695D01*
X402Y2693D01*
X400Y2693D01*
X400Y2691D01*
X398Y2691D01*
X398Y2689D01*
X394Y2689D01*
X394Y2669D01*
X396Y2669D01*
X396Y2667D01*
X400Y2667D01*
X400Y2665D01*
X402Y2665D01*
X402Y2663D01*
X404Y2663D01*
X404Y2661D01*
X406Y2661D01*
X406Y2659D01*
X408Y2659D01*
X408Y2657D01*
X410Y2657D01*
X410Y2653D01*
X412Y2653D01*
X412Y2651D01*
X414Y2651D01*
X414Y2647D01*
X416Y2647D01*
X416Y2639D01*
X418Y2639D01*
X418Y2617D01*
X416Y2617D01*
X416Y2611D01*
X414Y2611D01*
X414Y2607D01*
X412Y2607D01*
X412Y2603D01*
X410Y2603D01*
X410Y2601D01*
X408Y2601D01*
X408Y2599D01*
X406Y2599D01*
X406Y2597D01*
X404Y2597D01*
X404Y2595D01*
X402Y2595D01*
X402Y2593D01*
X400Y2593D01*
X400Y2591D01*
X398Y2591D01*
X398Y2589D01*
X394Y2589D01*
X394Y2569D01*
X396Y2569D01*
X396Y2567D01*
X400Y2567D01*
X400Y2565D01*
X402Y2565D01*
X402Y2563D01*
X404Y2563D01*
X404Y2561D01*
X406Y2561D01*
X406Y2559D01*
X408Y2559D01*
X408Y2557D01*
X410Y2557D01*
X410Y2553D01*
X412Y2553D01*
X412Y2551D01*
X414Y2551D01*
X414Y2547D01*
X416Y2547D01*
X416Y2539D01*
X418Y2539D01*
X418Y2517D01*
X416Y2517D01*
X416Y2511D01*
X414Y2511D01*
X414Y2507D01*
X412Y2507D01*
X412Y2503D01*
X410Y2503D01*
X410Y2501D01*
X408Y2501D01*
X408Y2499D01*
X406Y2499D01*
X406Y2497D01*
X404Y2497D01*
X404Y2495D01*
X402Y2495D01*
X402Y2493D01*
X400Y2493D01*
X400Y2491D01*
X398Y2491D01*
X398Y2489D01*
X394Y2489D01*
X394Y2469D01*
X396Y2469D01*
X396Y2467D01*
X400Y2467D01*
X400Y2465D01*
X402Y2465D01*
X402Y2463D01*
X404Y2463D01*
X404Y2461D01*
X406Y2461D01*
X406Y2459D01*
X408Y2459D01*
X408Y2457D01*
X410Y2457D01*
X410Y2453D01*
X412Y2453D01*
X412Y2451D01*
X414Y2451D01*
X414Y2447D01*
X416Y2447D01*
X416Y2439D01*
X418Y2439D01*
X418Y2417D01*
X416Y2417D01*
X416Y2411D01*
X414Y2411D01*
X414Y2407D01*
X412Y2407D01*
X412Y2403D01*
X410Y2403D01*
X410Y2401D01*
X408Y2401D01*
X408Y2399D01*
X406Y2399D01*
X406Y2397D01*
X404Y2397D01*
X404Y2395D01*
X402Y2395D01*
X402Y2393D01*
X400Y2393D01*
X400Y2391D01*
X398Y2391D01*
X398Y2389D01*
X394Y2389D01*
X394Y2369D01*
X396Y2369D01*
X396Y2367D01*
X400Y2367D01*
X400Y2365D01*
X402Y2365D01*
X402Y2363D01*
X404Y2363D01*
X404Y2361D01*
X406Y2361D01*
X406Y2359D01*
X408Y2359D01*
X408Y2357D01*
X410Y2357D01*
X410Y2353D01*
X412Y2353D01*
X412Y2351D01*
X414Y2351D01*
X414Y2347D01*
X416Y2347D01*
X416Y2339D01*
X418Y2339D01*
X418Y2317D01*
X416Y2317D01*
X416Y2311D01*
X414Y2311D01*
X414Y2307D01*
X412Y2307D01*
X412Y2303D01*
X410Y2303D01*
X410Y2301D01*
X408Y2301D01*
X408Y2299D01*
X406Y2299D01*
X406Y2297D01*
X404Y2297D01*
X404Y2295D01*
X402Y2295D01*
X402Y2293D01*
X400Y2293D01*
X400Y2291D01*
X398Y2291D01*
X398Y2289D01*
X394Y2289D01*
X394Y2269D01*
X396Y2269D01*
X396Y2267D01*
X400Y2267D01*
X400Y2265D01*
X402Y2265D01*
X402Y2263D01*
X404Y2263D01*
X404Y2261D01*
X406Y2261D01*
X406Y2259D01*
X408Y2259D01*
X408Y2257D01*
X410Y2257D01*
X410Y2253D01*
X412Y2253D01*
X412Y2251D01*
X414Y2251D01*
X414Y2247D01*
X416Y2247D01*
X416Y2239D01*
X418Y2239D01*
X418Y2217D01*
X416Y2217D01*
X416Y2211D01*
X414Y2211D01*
X414Y2207D01*
X412Y2207D01*
X412Y2203D01*
X410Y2203D01*
X410Y2201D01*
X408Y2201D01*
X408Y2199D01*
X406Y2199D01*
X406Y2197D01*
X404Y2197D01*
X404Y2195D01*
X402Y2195D01*
X402Y2193D01*
X400Y2193D01*
X400Y2191D01*
X398Y2191D01*
X398Y2189D01*
X394Y2189D01*
X394Y2187D01*
X390Y2187D01*
X390Y2185D01*
X382Y2185D01*
X382Y2183D01*
X1262Y2183D01*
X1262Y2185D01*
X1256Y2185D01*
X1256Y2187D01*
X1252Y2187D01*
X1252Y2189D01*
X1248Y2189D01*
X1248Y2191D01*
X1246Y2191D01*
X1246Y2193D01*
X1244Y2193D01*
X1244Y2195D01*
X1240Y2195D01*
X1240Y2197D01*
X1238Y2197D01*
X1238Y2201D01*
X1236Y2201D01*
X1236Y2203D01*
X1234Y2203D01*
X1234Y2207D01*
X1232Y2207D01*
X1232Y2211D01*
X1230Y2211D01*
X1230Y2217D01*
X1228Y2217D01*
X1228Y2241D01*
X1230Y2241D01*
X1230Y2247D01*
X1232Y2247D01*
X1232Y2251D01*
X1234Y2251D01*
X1234Y2255D01*
X1236Y2255D01*
X1236Y2257D01*
X1238Y2257D01*
X1238Y2259D01*
X1240Y2259D01*
X1240Y2261D01*
X1242Y2261D01*
X1242Y2263D01*
X1244Y2263D01*
X1244Y2265D01*
X1246Y2265D01*
X1246Y2267D01*
X1250Y2267D01*
X1250Y2269D01*
X1252Y2269D01*
X1252Y2289D01*
X1248Y2289D01*
X1248Y2291D01*
X1246Y2291D01*
X1246Y2293D01*
X1244Y2293D01*
X1244Y2295D01*
X1240Y2295D01*
X1240Y2297D01*
X1238Y2297D01*
X1238Y2301D01*
X1236Y2301D01*
X1236Y2303D01*
X1234Y2303D01*
X1234Y2307D01*
X1232Y2307D01*
X1232Y2311D01*
X1230Y2311D01*
X1230Y2317D01*
X1228Y2317D01*
X1228Y2341D01*
X1230Y2341D01*
X1230Y2347D01*
X1232Y2347D01*
X1232Y2351D01*
X1234Y2351D01*
X1234Y2355D01*
X1236Y2355D01*
X1236Y2357D01*
X1238Y2357D01*
X1238Y2359D01*
X1240Y2359D01*
X1240Y2361D01*
X1242Y2361D01*
X1242Y2363D01*
X1244Y2363D01*
X1244Y2365D01*
X1246Y2365D01*
X1246Y2367D01*
X1250Y2367D01*
X1250Y2369D01*
X1252Y2369D01*
X1252Y2389D01*
X1248Y2389D01*
X1248Y2391D01*
X1246Y2391D01*
X1246Y2393D01*
X1244Y2393D01*
X1244Y2395D01*
X1240Y2395D01*
X1240Y2397D01*
X1238Y2397D01*
X1238Y2401D01*
X1236Y2401D01*
X1236Y2403D01*
X1234Y2403D01*
X1234Y2407D01*
X1232Y2407D01*
X1232Y2411D01*
X1230Y2411D01*
X1230Y2417D01*
X1228Y2417D01*
X1228Y2441D01*
X1230Y2441D01*
X1230Y2447D01*
X1232Y2447D01*
X1232Y2451D01*
X1234Y2451D01*
X1234Y2455D01*
X1236Y2455D01*
X1236Y2457D01*
X1238Y2457D01*
X1238Y2459D01*
X1240Y2459D01*
X1240Y2461D01*
X1242Y2461D01*
X1242Y2463D01*
X1244Y2463D01*
X1244Y2465D01*
X1246Y2465D01*
X1246Y2467D01*
X1250Y2467D01*
X1250Y2469D01*
X1252Y2469D01*
X1252Y2489D01*
X1248Y2489D01*
X1248Y2491D01*
X1246Y2491D01*
X1246Y2493D01*
X1244Y2493D01*
X1244Y2495D01*
X1240Y2495D01*
X1240Y2497D01*
X1238Y2497D01*
X1238Y2501D01*
X1236Y2501D01*
X1236Y2503D01*
X1234Y2503D01*
X1234Y2507D01*
X1232Y2507D01*
X1232Y2511D01*
X1230Y2511D01*
X1230Y2517D01*
X1228Y2517D01*
X1228Y2541D01*
X1230Y2541D01*
X1230Y2547D01*
X1232Y2547D01*
X1232Y2551D01*
X1234Y2551D01*
X1234Y2555D01*
X1236Y2555D01*
X1236Y2557D01*
X1238Y2557D01*
X1238Y2559D01*
X1240Y2559D01*
X1240Y2561D01*
X1242Y2561D01*
X1242Y2563D01*
X1244Y2563D01*
X1244Y2565D01*
X1246Y2565D01*
X1246Y2567D01*
X1250Y2567D01*
X1250Y2569D01*
X1252Y2569D01*
X1252Y2589D01*
X1248Y2589D01*
X1248Y2591D01*
X1246Y2591D01*
X1246Y2593D01*
X1244Y2593D01*
X1244Y2595D01*
X1240Y2595D01*
X1240Y2597D01*
X1238Y2597D01*
X1238Y2601D01*
X1236Y2601D01*
X1236Y2603D01*
X1234Y2603D01*
X1234Y2607D01*
X1232Y2607D01*
X1232Y2611D01*
X1230Y2611D01*
X1230Y2617D01*
X1228Y2617D01*
X1228Y2641D01*
X1230Y2641D01*
X1230Y2647D01*
X1232Y2647D01*
X1232Y2651D01*
X1234Y2651D01*
X1234Y2655D01*
X1236Y2655D01*
X1236Y2657D01*
X1238Y2657D01*
X1238Y2659D01*
X1240Y2659D01*
X1240Y2661D01*
X1242Y2661D01*
X1242Y2663D01*
X1244Y2663D01*
X1244Y2665D01*
X1246Y2665D01*
X1246Y2667D01*
X1250Y2667D01*
X1250Y2669D01*
X1252Y2669D01*
X1252Y2689D01*
X1248Y2689D01*
X1248Y2691D01*
X1246Y2691D01*
X1246Y2693D01*
X1244Y2693D01*
X1244Y2695D01*
X1240Y2695D01*
X1240Y2697D01*
X1238Y2697D01*
X1238Y2701D01*
X1236Y2701D01*
X1236Y2703D01*
X1234Y2703D01*
X1234Y2707D01*
X1232Y2707D01*
X1232Y2711D01*
X1230Y2711D01*
X1230Y2717D01*
X1228Y2717D01*
X1228Y2741D01*
X1230Y2741D01*
X1230Y2747D01*
X1232Y2747D01*
X1232Y2751D01*
X1234Y2751D01*
X1234Y2755D01*
X1236Y2755D01*
X1236Y2757D01*
X1238Y2757D01*
X1238Y2759D01*
X1240Y2759D01*
X1240Y2761D01*
X1242Y2761D01*
X1242Y2763D01*
X1244Y2763D01*
X1244Y2765D01*
X1246Y2765D01*
X1246Y2767D01*
X1250Y2767D01*
X1250Y2769D01*
X1252Y2769D01*
X1252Y2789D01*
X1248Y2789D01*
X1248Y2791D01*
X1246Y2791D01*
X1246Y2793D01*
X1244Y2793D01*
X1244Y2795D01*
X1240Y2795D01*
X1240Y2797D01*
X1238Y2797D01*
X1238Y2801D01*
X1236Y2801D01*
X1236Y2803D01*
X1234Y2803D01*
X1234Y2807D01*
X1232Y2807D01*
X1232Y2811D01*
X1230Y2811D01*
X1230Y2817D01*
X1228Y2817D01*
X1228Y2841D01*
X1230Y2841D01*
X1230Y2847D01*
X1232Y2847D01*
X1232Y2851D01*
X1234Y2851D01*
X1234Y2855D01*
X1236Y2855D01*
X1236Y2857D01*
X1238Y2857D01*
X1238Y2859D01*
X1240Y2859D01*
X1240Y2861D01*
X1242Y2861D01*
X1242Y2863D01*
X1244Y2863D01*
X1244Y2865D01*
X1246Y2865D01*
X1246Y2867D01*
X1250Y2867D01*
X1250Y2869D01*
X1252Y2869D01*
X1252Y2889D01*
X1248Y2889D01*
X1248Y2891D01*
X1246Y2891D01*
X1246Y2893D01*
X1244Y2893D01*
X1244Y2895D01*
X1240Y2895D01*
X1240Y2897D01*
X1238Y2897D01*
X1238Y2901D01*
X1236Y2901D01*
X1236Y2903D01*
X1234Y2903D01*
X1234Y2907D01*
X1232Y2907D01*
X1232Y2911D01*
X1230Y2911D01*
X1230Y2917D01*
X1228Y2917D01*
X1228Y2941D01*
X1230Y2941D01*
X1230Y2947D01*
X1232Y2947D01*
X1232Y2951D01*
X1234Y2951D01*
X1234Y2955D01*
X1236Y2955D01*
X1236Y2957D01*
X1238Y2957D01*
X1238Y2959D01*
X1240Y2959D01*
X1240Y2961D01*
X1242Y2961D01*
X1242Y2963D01*
X1244Y2963D01*
X1244Y2965D01*
X1246Y2965D01*
X1246Y2967D01*
X1250Y2967D01*
X1250Y2969D01*
X1252Y2969D01*
X1252Y2989D01*
X1248Y2989D01*
X1248Y2991D01*
X1246Y2991D01*
X1246Y2993D01*
X1244Y2993D01*
X1244Y2995D01*
X1240Y2995D01*
X1240Y2997D01*
X1238Y2997D01*
X1238Y3001D01*
X1236Y3001D01*
X1236Y3003D01*
X1234Y3003D01*
X1234Y3007D01*
X1232Y3007D01*
X1232Y3011D01*
X1230Y3011D01*
X1230Y3017D01*
X1228Y3017D01*
X1228Y3041D01*
X1230Y3041D01*
X1230Y3047D01*
X1232Y3047D01*
X1232Y3051D01*
X1234Y3051D01*
X1234Y3055D01*
X1236Y3055D01*
X1236Y3057D01*
X1238Y3057D01*
X1238Y3059D01*
X1240Y3059D01*
X1240Y3061D01*
X1242Y3061D01*
X1242Y3063D01*
X1244Y3063D01*
X1244Y3065D01*
X1246Y3065D01*
X1246Y3067D01*
X1250Y3067D01*
X1250Y3069D01*
X1252Y3069D01*
X1252Y3089D01*
X1248Y3089D01*
X1248Y3091D01*
X1246Y3091D01*
X1246Y3093D01*
X1244Y3093D01*
X1244Y3095D01*
X1240Y3095D01*
X1240Y3097D01*
X1238Y3097D01*
X1238Y3101D01*
X1236Y3101D01*
X1236Y3103D01*
X1234Y3103D01*
X1234Y3107D01*
X1232Y3107D01*
X1232Y3111D01*
X1230Y3111D01*
X1230Y3117D01*
X1228Y3117D01*
X1228Y3141D01*
X1230Y3141D01*
X1230Y3147D01*
X1232Y3147D01*
X1232Y3151D01*
X1234Y3151D01*
X1234Y3155D01*
X1236Y3155D01*
X1236Y3157D01*
X1238Y3157D01*
X1238Y3159D01*
X1240Y3159D01*
X1240Y3161D01*
X1242Y3161D01*
X1242Y3163D01*
X1244Y3163D01*
X1244Y3165D01*
X1246Y3165D01*
X1246Y3167D01*
X1250Y3167D01*
X1250Y3169D01*
X1252Y3169D01*
X1252Y3189D01*
X1248Y3189D01*
X1248Y3191D01*
X1246Y3191D01*
X1246Y3193D01*
X1244Y3193D01*
X1244Y3195D01*
X1240Y3195D01*
X1240Y3197D01*
X1238Y3197D01*
X1238Y3201D01*
X1236Y3201D01*
X1236Y3203D01*
X1234Y3203D01*
X1234Y3207D01*
X1232Y3207D01*
X1232Y3211D01*
X1230Y3211D01*
X1230Y3217D01*
X1228Y3217D01*
X1228Y3241D01*
X1230Y3241D01*
X1230Y3247D01*
X1232Y3247D01*
X1232Y3251D01*
X1234Y3251D01*
X1234Y3255D01*
X1236Y3255D01*
X1236Y3257D01*
X1238Y3257D01*
X1238Y3259D01*
X1240Y3259D01*
X1240Y3261D01*
X1242Y3261D01*
X1242Y3263D01*
X1244Y3263D01*
X1244Y3265D01*
X1246Y3265D01*
X1246Y3267D01*
X1250Y3267D01*
X1250Y3269D01*
X1252Y3269D01*
X1252Y3289D01*
X1248Y3289D01*
X1248Y3291D01*
X1246Y3291D01*
X1246Y3293D01*
X1244Y3293D01*
X1244Y3295D01*
X1240Y3295D01*
X1240Y3297D01*
X1238Y3297D01*
X1238Y3301D01*
X1236Y3301D01*
X1236Y3303D01*
X1234Y3303D01*
X1234Y3307D01*
X1232Y3307D01*
X1232Y3311D01*
X1230Y3311D01*
X1230Y3317D01*
X1228Y3317D01*
X1228Y3341D01*
X1230Y3341D01*
X1230Y3347D01*
X1232Y3347D01*
X1232Y3351D01*
X1234Y3351D01*
X1234Y3355D01*
X1236Y3355D01*
X1236Y3357D01*
X1238Y3357D01*
X1238Y3359D01*
X1240Y3359D01*
X1240Y3361D01*
X1242Y3361D01*
X1242Y3363D01*
X1244Y3363D01*
X1244Y3365D01*
X1246Y3365D01*
X1246Y3367D01*
X1250Y3367D01*
X1250Y3369D01*
X1252Y3369D01*
X1252Y3389D01*
X1248Y3389D01*
X1248Y3391D01*
X1246Y3391D01*
X1246Y3393D01*
X1244Y3393D01*
X1244Y3395D01*
X1240Y3395D01*
X1240Y3397D01*
X1238Y3397D01*
X1238Y3401D01*
X1236Y3401D01*
X1236Y3403D01*
X1234Y3403D01*
X1234Y3407D01*
X1232Y3407D01*
X1232Y3411D01*
X1230Y3411D01*
X1230Y3417D01*
X1228Y3417D01*
X1228Y3441D01*
X1230Y3441D01*
X1230Y3447D01*
X1232Y3447D01*
X1232Y3451D01*
X1234Y3451D01*
X1234Y3455D01*
X1236Y3455D01*
X1236Y3457D01*
X1238Y3457D01*
X1238Y3459D01*
X1240Y3459D01*
X1240Y3461D01*
X1242Y3461D01*
X1242Y3463D01*
X1244Y3463D01*
X1244Y3465D01*
X1246Y3465D01*
X1246Y3467D01*
X1250Y3467D01*
X1250Y3469D01*
X1252Y3469D01*
X1252Y3489D01*
X1248Y3489D01*
X1248Y3491D01*
X1246Y3491D01*
X1246Y3493D01*
X1244Y3493D01*
X1244Y3495D01*
X1240Y3495D01*
X1240Y3497D01*
X1238Y3497D01*
X1238Y3501D01*
X1236Y3501D01*
X1236Y3503D01*
X1234Y3503D01*
X1234Y3507D01*
X1232Y3507D01*
X1232Y3511D01*
X1230Y3511D01*
X1230Y3517D01*
X1228Y3517D01*
X1228Y3541D01*
X1230Y3541D01*
X1230Y3547D01*
X1232Y3547D01*
X1232Y3551D01*
X1234Y3551D01*
X1234Y3555D01*
X1236Y3555D01*
X1236Y3557D01*
X1238Y3557D01*
X1238Y3559D01*
X1240Y3559D01*
X1240Y3561D01*
X1242Y3561D01*
X1242Y3563D01*
X1244Y3563D01*
X1244Y3565D01*
X1246Y3565D01*
X1246Y3567D01*
X1250Y3567D01*
X1250Y3569D01*
X1252Y3569D01*
X1252Y3589D01*
X1248Y3589D01*
X1248Y3591D01*
X1246Y3591D01*
X1246Y3593D01*
X1244Y3593D01*
X1244Y3595D01*
X1240Y3595D01*
X1240Y3597D01*
X1238Y3597D01*
X1238Y3601D01*
X1236Y3601D01*
X1236Y3603D01*
X1234Y3603D01*
X1234Y3607D01*
X1232Y3607D01*
X1232Y3611D01*
X1230Y3611D01*
X1230Y3617D01*
X1228Y3617D01*
X1228Y3641D01*
X1230Y3641D01*
X1230Y3647D01*
X1232Y3647D01*
X1232Y3651D01*
X1234Y3651D01*
X1234Y3655D01*
X1236Y3655D01*
X1236Y3657D01*
X1238Y3657D01*
X1238Y3659D01*
X1240Y3659D01*
X1240Y3661D01*
X1242Y3661D01*
X1242Y3663D01*
X1244Y3663D01*
X1244Y3665D01*
X1246Y3665D01*
X1246Y3667D01*
X1250Y3667D01*
X1250Y3669D01*
X1254Y3669D01*
X1254Y3671D01*
X1258Y3671D01*
X1258Y3673D01*
X1268Y3673D01*
X1268Y3675D01*
X378Y3675D01*
G37*
D02*
G36*
X3146Y3659D02*
X3146Y3657D01*
X3578Y3657D01*
X3578Y3659D01*
X3146Y3659D01*
G37*
D02*
G36*
X3146Y3659D02*
X3146Y3657D01*
X3578Y3657D01*
X3578Y3659D01*
X3146Y3659D01*
G37*
D02*
G36*
X40Y3657D02*
X40Y3655D01*
X336Y3655D01*
X336Y3657D01*
X40Y3657D01*
G37*
D02*
G36*
X40Y3657D02*
X40Y3655D01*
X336Y3655D01*
X336Y3657D01*
X40Y3657D01*
G37*
D02*
G36*
X3146Y3657D02*
X3146Y3649D01*
X3144Y3649D01*
X3144Y3643D01*
X3142Y3643D01*
X3142Y3641D01*
X3140Y3641D01*
X3140Y3637D01*
X3138Y3637D01*
X3138Y3635D01*
X3136Y3635D01*
X3136Y3631D01*
X3134Y3631D01*
X3134Y3629D01*
X3132Y3629D01*
X3132Y3627D01*
X3128Y3627D01*
X3128Y3625D01*
X3126Y3625D01*
X3126Y3623D01*
X3122Y3623D01*
X3122Y3621D01*
X3118Y3621D01*
X3118Y3619D01*
X3112Y3619D01*
X3112Y3617D01*
X3578Y3617D01*
X3578Y3657D01*
X3146Y3657D01*
G37*
D02*
G36*
X40Y3655D02*
X40Y2183D01*
X362Y2183D01*
X362Y2185D01*
X356Y2185D01*
X356Y2187D01*
X352Y2187D01*
X352Y2189D01*
X348Y2189D01*
X348Y2191D01*
X346Y2191D01*
X346Y2193D01*
X344Y2193D01*
X344Y2195D01*
X340Y2195D01*
X340Y2197D01*
X338Y2197D01*
X338Y2201D01*
X336Y2201D01*
X336Y2203D01*
X334Y2203D01*
X334Y2207D01*
X332Y2207D01*
X332Y2211D01*
X330Y2211D01*
X330Y2217D01*
X328Y2217D01*
X328Y2241D01*
X330Y2241D01*
X330Y2247D01*
X332Y2247D01*
X332Y2251D01*
X334Y2251D01*
X334Y2255D01*
X336Y2255D01*
X336Y2257D01*
X338Y2257D01*
X338Y2259D01*
X340Y2259D01*
X340Y2261D01*
X342Y2261D01*
X342Y2263D01*
X344Y2263D01*
X344Y2265D01*
X346Y2265D01*
X346Y2267D01*
X350Y2267D01*
X350Y2269D01*
X352Y2269D01*
X352Y2289D01*
X348Y2289D01*
X348Y2291D01*
X346Y2291D01*
X346Y2293D01*
X344Y2293D01*
X344Y2295D01*
X340Y2295D01*
X340Y2297D01*
X338Y2297D01*
X338Y2301D01*
X336Y2301D01*
X336Y2303D01*
X334Y2303D01*
X334Y2307D01*
X332Y2307D01*
X332Y2311D01*
X330Y2311D01*
X330Y2317D01*
X328Y2317D01*
X328Y2341D01*
X330Y2341D01*
X330Y2347D01*
X332Y2347D01*
X332Y2351D01*
X334Y2351D01*
X334Y2355D01*
X336Y2355D01*
X336Y2357D01*
X338Y2357D01*
X338Y2359D01*
X340Y2359D01*
X340Y2361D01*
X342Y2361D01*
X342Y2363D01*
X344Y2363D01*
X344Y2365D01*
X346Y2365D01*
X346Y2367D01*
X350Y2367D01*
X350Y2369D01*
X352Y2369D01*
X352Y2389D01*
X348Y2389D01*
X348Y2391D01*
X346Y2391D01*
X346Y2393D01*
X344Y2393D01*
X344Y2395D01*
X340Y2395D01*
X340Y2397D01*
X338Y2397D01*
X338Y2401D01*
X336Y2401D01*
X336Y2403D01*
X334Y2403D01*
X334Y2407D01*
X332Y2407D01*
X332Y2411D01*
X330Y2411D01*
X330Y2417D01*
X328Y2417D01*
X328Y2441D01*
X330Y2441D01*
X330Y2447D01*
X332Y2447D01*
X332Y2451D01*
X334Y2451D01*
X334Y2455D01*
X336Y2455D01*
X336Y2457D01*
X338Y2457D01*
X338Y2459D01*
X340Y2459D01*
X340Y2461D01*
X342Y2461D01*
X342Y2463D01*
X344Y2463D01*
X344Y2465D01*
X346Y2465D01*
X346Y2467D01*
X350Y2467D01*
X350Y2469D01*
X352Y2469D01*
X352Y2489D01*
X348Y2489D01*
X348Y2491D01*
X346Y2491D01*
X346Y2493D01*
X344Y2493D01*
X344Y2495D01*
X340Y2495D01*
X340Y2497D01*
X338Y2497D01*
X338Y2501D01*
X336Y2501D01*
X336Y2503D01*
X334Y2503D01*
X334Y2507D01*
X332Y2507D01*
X332Y2511D01*
X330Y2511D01*
X330Y2517D01*
X328Y2517D01*
X328Y2541D01*
X330Y2541D01*
X330Y2547D01*
X332Y2547D01*
X332Y2551D01*
X334Y2551D01*
X334Y2555D01*
X336Y2555D01*
X336Y2557D01*
X338Y2557D01*
X338Y2559D01*
X340Y2559D01*
X340Y2561D01*
X342Y2561D01*
X342Y2563D01*
X344Y2563D01*
X344Y2565D01*
X346Y2565D01*
X346Y2567D01*
X350Y2567D01*
X350Y2569D01*
X352Y2569D01*
X352Y2589D01*
X348Y2589D01*
X348Y2591D01*
X346Y2591D01*
X346Y2593D01*
X344Y2593D01*
X344Y2595D01*
X340Y2595D01*
X340Y2597D01*
X338Y2597D01*
X338Y2601D01*
X336Y2601D01*
X336Y2603D01*
X334Y2603D01*
X334Y2607D01*
X332Y2607D01*
X332Y2611D01*
X330Y2611D01*
X330Y2617D01*
X328Y2617D01*
X328Y2641D01*
X330Y2641D01*
X330Y2647D01*
X332Y2647D01*
X332Y2651D01*
X334Y2651D01*
X334Y2655D01*
X336Y2655D01*
X336Y2657D01*
X338Y2657D01*
X338Y2659D01*
X340Y2659D01*
X340Y2661D01*
X342Y2661D01*
X342Y2663D01*
X344Y2663D01*
X344Y2665D01*
X346Y2665D01*
X346Y2667D01*
X350Y2667D01*
X350Y2669D01*
X352Y2669D01*
X352Y2689D01*
X348Y2689D01*
X348Y2691D01*
X346Y2691D01*
X346Y2693D01*
X344Y2693D01*
X344Y2695D01*
X340Y2695D01*
X340Y2697D01*
X338Y2697D01*
X338Y2701D01*
X336Y2701D01*
X336Y2703D01*
X334Y2703D01*
X334Y2707D01*
X332Y2707D01*
X332Y2711D01*
X330Y2711D01*
X330Y2717D01*
X328Y2717D01*
X328Y2741D01*
X330Y2741D01*
X330Y2747D01*
X332Y2747D01*
X332Y2751D01*
X334Y2751D01*
X334Y2755D01*
X336Y2755D01*
X336Y2757D01*
X338Y2757D01*
X338Y2759D01*
X340Y2759D01*
X340Y2761D01*
X342Y2761D01*
X342Y2763D01*
X344Y2763D01*
X344Y2765D01*
X346Y2765D01*
X346Y2767D01*
X350Y2767D01*
X350Y2769D01*
X352Y2769D01*
X352Y2789D01*
X348Y2789D01*
X348Y2791D01*
X346Y2791D01*
X346Y2793D01*
X344Y2793D01*
X344Y2795D01*
X340Y2795D01*
X340Y2797D01*
X338Y2797D01*
X338Y2801D01*
X336Y2801D01*
X336Y2803D01*
X334Y2803D01*
X334Y2807D01*
X332Y2807D01*
X332Y2811D01*
X330Y2811D01*
X330Y2817D01*
X328Y2817D01*
X328Y2841D01*
X330Y2841D01*
X330Y2847D01*
X332Y2847D01*
X332Y2851D01*
X334Y2851D01*
X334Y2855D01*
X336Y2855D01*
X336Y2857D01*
X338Y2857D01*
X338Y2859D01*
X340Y2859D01*
X340Y2861D01*
X342Y2861D01*
X342Y2863D01*
X344Y2863D01*
X344Y2865D01*
X346Y2865D01*
X346Y2867D01*
X350Y2867D01*
X350Y2869D01*
X352Y2869D01*
X352Y2889D01*
X348Y2889D01*
X348Y2891D01*
X346Y2891D01*
X346Y2893D01*
X344Y2893D01*
X344Y2895D01*
X340Y2895D01*
X340Y2897D01*
X338Y2897D01*
X338Y2901D01*
X336Y2901D01*
X336Y2903D01*
X334Y2903D01*
X334Y2907D01*
X332Y2907D01*
X332Y2911D01*
X330Y2911D01*
X330Y2917D01*
X328Y2917D01*
X328Y2941D01*
X330Y2941D01*
X330Y2947D01*
X332Y2947D01*
X332Y2951D01*
X334Y2951D01*
X334Y2955D01*
X336Y2955D01*
X336Y2957D01*
X338Y2957D01*
X338Y2959D01*
X340Y2959D01*
X340Y2961D01*
X342Y2961D01*
X342Y2963D01*
X344Y2963D01*
X344Y2965D01*
X346Y2965D01*
X346Y2967D01*
X350Y2967D01*
X350Y2969D01*
X352Y2969D01*
X352Y2989D01*
X348Y2989D01*
X348Y2991D01*
X346Y2991D01*
X346Y2993D01*
X344Y2993D01*
X344Y2995D01*
X340Y2995D01*
X340Y2997D01*
X338Y2997D01*
X338Y3001D01*
X336Y3001D01*
X336Y3003D01*
X334Y3003D01*
X334Y3007D01*
X332Y3007D01*
X332Y3011D01*
X330Y3011D01*
X330Y3017D01*
X328Y3017D01*
X328Y3041D01*
X330Y3041D01*
X330Y3047D01*
X332Y3047D01*
X332Y3051D01*
X334Y3051D01*
X334Y3055D01*
X336Y3055D01*
X336Y3057D01*
X338Y3057D01*
X338Y3059D01*
X340Y3059D01*
X340Y3061D01*
X342Y3061D01*
X342Y3063D01*
X344Y3063D01*
X344Y3065D01*
X346Y3065D01*
X346Y3067D01*
X350Y3067D01*
X350Y3069D01*
X352Y3069D01*
X352Y3089D01*
X348Y3089D01*
X348Y3091D01*
X346Y3091D01*
X346Y3093D01*
X344Y3093D01*
X344Y3095D01*
X340Y3095D01*
X340Y3097D01*
X338Y3097D01*
X338Y3101D01*
X336Y3101D01*
X336Y3103D01*
X334Y3103D01*
X334Y3107D01*
X332Y3107D01*
X332Y3111D01*
X330Y3111D01*
X330Y3117D01*
X328Y3117D01*
X328Y3141D01*
X330Y3141D01*
X330Y3147D01*
X332Y3147D01*
X332Y3151D01*
X334Y3151D01*
X334Y3155D01*
X336Y3155D01*
X336Y3157D01*
X338Y3157D01*
X338Y3159D01*
X340Y3159D01*
X340Y3161D01*
X342Y3161D01*
X342Y3163D01*
X344Y3163D01*
X344Y3165D01*
X346Y3165D01*
X346Y3167D01*
X350Y3167D01*
X350Y3169D01*
X352Y3169D01*
X352Y3189D01*
X348Y3189D01*
X348Y3191D01*
X346Y3191D01*
X346Y3193D01*
X344Y3193D01*
X344Y3195D01*
X340Y3195D01*
X340Y3197D01*
X338Y3197D01*
X338Y3201D01*
X336Y3201D01*
X336Y3203D01*
X334Y3203D01*
X334Y3207D01*
X332Y3207D01*
X332Y3211D01*
X330Y3211D01*
X330Y3217D01*
X328Y3217D01*
X328Y3241D01*
X330Y3241D01*
X330Y3247D01*
X332Y3247D01*
X332Y3251D01*
X334Y3251D01*
X334Y3255D01*
X336Y3255D01*
X336Y3257D01*
X338Y3257D01*
X338Y3259D01*
X340Y3259D01*
X340Y3261D01*
X342Y3261D01*
X342Y3263D01*
X344Y3263D01*
X344Y3265D01*
X346Y3265D01*
X346Y3267D01*
X350Y3267D01*
X350Y3269D01*
X352Y3269D01*
X352Y3289D01*
X348Y3289D01*
X348Y3291D01*
X346Y3291D01*
X346Y3293D01*
X344Y3293D01*
X344Y3295D01*
X340Y3295D01*
X340Y3297D01*
X338Y3297D01*
X338Y3301D01*
X336Y3301D01*
X336Y3303D01*
X334Y3303D01*
X334Y3307D01*
X332Y3307D01*
X332Y3311D01*
X330Y3311D01*
X330Y3317D01*
X328Y3317D01*
X328Y3341D01*
X330Y3341D01*
X330Y3347D01*
X332Y3347D01*
X332Y3351D01*
X334Y3351D01*
X334Y3355D01*
X336Y3355D01*
X336Y3357D01*
X338Y3357D01*
X338Y3359D01*
X340Y3359D01*
X340Y3361D01*
X342Y3361D01*
X342Y3363D01*
X344Y3363D01*
X344Y3365D01*
X346Y3365D01*
X346Y3367D01*
X350Y3367D01*
X350Y3369D01*
X352Y3369D01*
X352Y3389D01*
X348Y3389D01*
X348Y3391D01*
X346Y3391D01*
X346Y3393D01*
X344Y3393D01*
X344Y3395D01*
X340Y3395D01*
X340Y3397D01*
X338Y3397D01*
X338Y3401D01*
X336Y3401D01*
X336Y3403D01*
X334Y3403D01*
X334Y3407D01*
X332Y3407D01*
X332Y3411D01*
X330Y3411D01*
X330Y3417D01*
X328Y3417D01*
X328Y3441D01*
X330Y3441D01*
X330Y3447D01*
X332Y3447D01*
X332Y3451D01*
X334Y3451D01*
X334Y3455D01*
X336Y3455D01*
X336Y3457D01*
X338Y3457D01*
X338Y3459D01*
X340Y3459D01*
X340Y3461D01*
X342Y3461D01*
X342Y3463D01*
X344Y3463D01*
X344Y3465D01*
X346Y3465D01*
X346Y3467D01*
X350Y3467D01*
X350Y3469D01*
X352Y3469D01*
X352Y3489D01*
X348Y3489D01*
X348Y3491D01*
X346Y3491D01*
X346Y3493D01*
X344Y3493D01*
X344Y3495D01*
X340Y3495D01*
X340Y3497D01*
X338Y3497D01*
X338Y3501D01*
X336Y3501D01*
X336Y3503D01*
X334Y3503D01*
X334Y3507D01*
X332Y3507D01*
X332Y3511D01*
X330Y3511D01*
X330Y3517D01*
X328Y3517D01*
X328Y3541D01*
X330Y3541D01*
X330Y3547D01*
X332Y3547D01*
X332Y3551D01*
X334Y3551D01*
X334Y3555D01*
X336Y3555D01*
X336Y3557D01*
X338Y3557D01*
X338Y3559D01*
X340Y3559D01*
X340Y3561D01*
X342Y3561D01*
X342Y3563D01*
X344Y3563D01*
X344Y3565D01*
X346Y3565D01*
X346Y3567D01*
X350Y3567D01*
X350Y3569D01*
X352Y3569D01*
X352Y3589D01*
X348Y3589D01*
X348Y3591D01*
X346Y3591D01*
X346Y3593D01*
X344Y3593D01*
X344Y3595D01*
X340Y3595D01*
X340Y3597D01*
X338Y3597D01*
X338Y3601D01*
X336Y3601D01*
X336Y3603D01*
X334Y3603D01*
X334Y3607D01*
X332Y3607D01*
X332Y3611D01*
X330Y3611D01*
X330Y3617D01*
X328Y3617D01*
X328Y3641D01*
X330Y3641D01*
X330Y3647D01*
X332Y3647D01*
X332Y3651D01*
X334Y3651D01*
X334Y3655D01*
X40Y3655D01*
G37*
D02*
G36*
X1316Y3617D02*
X1316Y3615D01*
X3578Y3615D01*
X3578Y3617D01*
X1316Y3617D01*
G37*
D02*
G36*
X1316Y3617D02*
X1316Y3615D01*
X3578Y3615D01*
X3578Y3617D01*
X1316Y3617D01*
G37*
D02*
G36*
X1316Y3617D02*
X1316Y3615D01*
X3578Y3615D01*
X3578Y3617D01*
X1316Y3617D01*
G37*
D02*
G36*
X1316Y3617D02*
X1316Y3615D01*
X3578Y3615D01*
X3578Y3617D01*
X1316Y3617D01*
G37*
D02*
G36*
X1316Y3617D02*
X1316Y3615D01*
X3578Y3615D01*
X3578Y3617D01*
X1316Y3617D01*
G37*
D02*
G36*
X1316Y3615D02*
X1316Y3611D01*
X1314Y3611D01*
X1314Y3607D01*
X1312Y3607D01*
X1312Y3603D01*
X1310Y3603D01*
X1310Y3601D01*
X1308Y3601D01*
X1308Y3599D01*
X1306Y3599D01*
X1306Y3597D01*
X1304Y3597D01*
X1304Y3595D01*
X1302Y3595D01*
X1302Y3593D01*
X1300Y3593D01*
X1300Y3591D01*
X1298Y3591D01*
X1298Y3589D01*
X1294Y3589D01*
X1294Y3569D01*
X1296Y3569D01*
X1296Y3567D01*
X1300Y3567D01*
X1300Y3565D01*
X1302Y3565D01*
X1302Y3563D01*
X1304Y3563D01*
X1304Y3561D01*
X1306Y3561D01*
X1306Y3559D01*
X1308Y3559D01*
X1308Y3557D01*
X1310Y3557D01*
X1310Y3553D01*
X1312Y3553D01*
X1312Y3551D01*
X1314Y3551D01*
X1314Y3547D01*
X1316Y3547D01*
X1316Y3539D01*
X1318Y3539D01*
X1318Y3517D01*
X1316Y3517D01*
X1316Y3511D01*
X1314Y3511D01*
X1314Y3507D01*
X1312Y3507D01*
X1312Y3503D01*
X1310Y3503D01*
X1310Y3501D01*
X1308Y3501D01*
X1308Y3499D01*
X1306Y3499D01*
X1306Y3497D01*
X1304Y3497D01*
X1304Y3495D01*
X1302Y3495D01*
X1302Y3493D01*
X1300Y3493D01*
X1300Y3491D01*
X1298Y3491D01*
X1298Y3489D01*
X1294Y3489D01*
X1294Y3469D01*
X1296Y3469D01*
X1296Y3467D01*
X1300Y3467D01*
X1300Y3465D01*
X1302Y3465D01*
X1302Y3463D01*
X1304Y3463D01*
X1304Y3461D01*
X1306Y3461D01*
X1306Y3459D01*
X1308Y3459D01*
X1308Y3457D01*
X1310Y3457D01*
X1310Y3453D01*
X1312Y3453D01*
X1312Y3451D01*
X1314Y3451D01*
X1314Y3447D01*
X1316Y3447D01*
X1316Y3439D01*
X1318Y3439D01*
X1318Y3417D01*
X1316Y3417D01*
X1316Y3411D01*
X1314Y3411D01*
X1314Y3407D01*
X1312Y3407D01*
X1312Y3403D01*
X1310Y3403D01*
X1310Y3401D01*
X1308Y3401D01*
X1308Y3399D01*
X1306Y3399D01*
X1306Y3397D01*
X1304Y3397D01*
X1304Y3395D01*
X1302Y3395D01*
X1302Y3393D01*
X1300Y3393D01*
X1300Y3391D01*
X1298Y3391D01*
X1298Y3389D01*
X1294Y3389D01*
X1294Y3369D01*
X1296Y3369D01*
X1296Y3367D01*
X1300Y3367D01*
X1300Y3365D01*
X1302Y3365D01*
X1302Y3363D01*
X1304Y3363D01*
X1304Y3361D01*
X1306Y3361D01*
X1306Y3359D01*
X1308Y3359D01*
X1308Y3357D01*
X1310Y3357D01*
X1310Y3353D01*
X1312Y3353D01*
X1312Y3351D01*
X1314Y3351D01*
X1314Y3347D01*
X1316Y3347D01*
X1316Y3339D01*
X1318Y3339D01*
X1318Y3317D01*
X1316Y3317D01*
X1316Y3311D01*
X1314Y3311D01*
X1314Y3307D01*
X1312Y3307D01*
X1312Y3303D01*
X1310Y3303D01*
X1310Y3301D01*
X1308Y3301D01*
X1308Y3299D01*
X1306Y3299D01*
X1306Y3297D01*
X1304Y3297D01*
X1304Y3295D01*
X1302Y3295D01*
X1302Y3293D01*
X1300Y3293D01*
X1300Y3291D01*
X1298Y3291D01*
X1298Y3289D01*
X1294Y3289D01*
X1294Y3269D01*
X1296Y3269D01*
X1296Y3267D01*
X1300Y3267D01*
X1300Y3265D01*
X1302Y3265D01*
X1302Y3263D01*
X1304Y3263D01*
X1304Y3261D01*
X1306Y3261D01*
X1306Y3259D01*
X1308Y3259D01*
X1308Y3257D01*
X1310Y3257D01*
X1310Y3253D01*
X1312Y3253D01*
X1312Y3251D01*
X1314Y3251D01*
X1314Y3247D01*
X1316Y3247D01*
X1316Y3239D01*
X1318Y3239D01*
X1318Y3217D01*
X1316Y3217D01*
X1316Y3211D01*
X1314Y3211D01*
X1314Y3207D01*
X1312Y3207D01*
X1312Y3203D01*
X1310Y3203D01*
X1310Y3201D01*
X1308Y3201D01*
X1308Y3199D01*
X1306Y3199D01*
X1306Y3197D01*
X1304Y3197D01*
X1304Y3195D01*
X1302Y3195D01*
X1302Y3193D01*
X1300Y3193D01*
X1300Y3191D01*
X1298Y3191D01*
X1298Y3189D01*
X1294Y3189D01*
X1294Y3169D01*
X1296Y3169D01*
X1296Y3167D01*
X1300Y3167D01*
X1300Y3165D01*
X1302Y3165D01*
X1302Y3163D01*
X1304Y3163D01*
X1304Y3161D01*
X1306Y3161D01*
X1306Y3159D01*
X1308Y3159D01*
X1308Y3157D01*
X1310Y3157D01*
X1310Y3153D01*
X1312Y3153D01*
X1312Y3151D01*
X1314Y3151D01*
X1314Y3147D01*
X1316Y3147D01*
X1316Y3139D01*
X1318Y3139D01*
X1318Y3117D01*
X1316Y3117D01*
X1316Y3111D01*
X1314Y3111D01*
X1314Y3107D01*
X1312Y3107D01*
X1312Y3103D01*
X1310Y3103D01*
X1310Y3101D01*
X1308Y3101D01*
X1308Y3099D01*
X1306Y3099D01*
X1306Y3097D01*
X1304Y3097D01*
X1304Y3095D01*
X1302Y3095D01*
X1302Y3093D01*
X1300Y3093D01*
X1300Y3091D01*
X1298Y3091D01*
X1298Y3089D01*
X1294Y3089D01*
X1294Y3069D01*
X1296Y3069D01*
X1296Y3067D01*
X1300Y3067D01*
X1300Y3065D01*
X1302Y3065D01*
X1302Y3063D01*
X1304Y3063D01*
X1304Y3061D01*
X1306Y3061D01*
X1306Y3059D01*
X1308Y3059D01*
X1308Y3057D01*
X1310Y3057D01*
X1310Y3053D01*
X1312Y3053D01*
X1312Y3051D01*
X1314Y3051D01*
X1314Y3047D01*
X1316Y3047D01*
X1316Y3039D01*
X1318Y3039D01*
X1318Y3017D01*
X1316Y3017D01*
X1316Y3011D01*
X1314Y3011D01*
X1314Y3007D01*
X1312Y3007D01*
X1312Y3003D01*
X3042Y3003D01*
X3042Y3001D01*
X3048Y3001D01*
X3048Y2999D01*
X3052Y2999D01*
X3052Y2997D01*
X3056Y2997D01*
X3056Y2995D01*
X3060Y2995D01*
X3060Y2993D01*
X3062Y2993D01*
X3062Y2991D01*
X3064Y2991D01*
X3064Y2989D01*
X3068Y2989D01*
X3068Y2987D01*
X3070Y2987D01*
X3070Y2983D01*
X3072Y2983D01*
X3072Y2981D01*
X3074Y2981D01*
X3074Y2979D01*
X3076Y2979D01*
X3076Y2975D01*
X3078Y2975D01*
X3078Y2973D01*
X3080Y2973D01*
X3080Y2969D01*
X3082Y2969D01*
X3082Y2963D01*
X3084Y2963D01*
X3084Y2953D01*
X3086Y2953D01*
X3086Y2939D01*
X3084Y2939D01*
X3084Y2929D01*
X3082Y2929D01*
X3082Y2923D01*
X3080Y2923D01*
X3080Y2919D01*
X3078Y2919D01*
X3078Y2915D01*
X3076Y2915D01*
X3076Y2913D01*
X3074Y2913D01*
X3074Y2911D01*
X3072Y2911D01*
X3072Y2907D01*
X3070Y2907D01*
X3070Y2905D01*
X3068Y2905D01*
X3068Y2903D01*
X3066Y2903D01*
X3066Y2901D01*
X3062Y2901D01*
X3062Y2899D01*
X3060Y2899D01*
X3060Y2897D01*
X3056Y2897D01*
X3056Y2895D01*
X3054Y2895D01*
X3054Y2893D01*
X3048Y2893D01*
X3048Y2891D01*
X3042Y2891D01*
X3042Y2889D01*
X3030Y2889D01*
X3030Y2887D01*
X3578Y2887D01*
X3578Y3615D01*
X1316Y3615D01*
G37*
D02*
G36*
X1310Y3003D02*
X1310Y3001D01*
X1308Y3001D01*
X1308Y2999D01*
X1306Y2999D01*
X1306Y2997D01*
X1304Y2997D01*
X1304Y2995D01*
X1302Y2995D01*
X1302Y2993D01*
X1300Y2993D01*
X1300Y2991D01*
X1298Y2991D01*
X1298Y2989D01*
X1294Y2989D01*
X1294Y2969D01*
X1296Y2969D01*
X1296Y2967D01*
X1300Y2967D01*
X1300Y2965D01*
X1302Y2965D01*
X1302Y2963D01*
X1304Y2963D01*
X1304Y2961D01*
X1306Y2961D01*
X1306Y2959D01*
X1308Y2959D01*
X1308Y2957D01*
X1310Y2957D01*
X1310Y2953D01*
X1312Y2953D01*
X1312Y2951D01*
X1314Y2951D01*
X1314Y2947D01*
X1316Y2947D01*
X1316Y2939D01*
X1318Y2939D01*
X1318Y2917D01*
X1316Y2917D01*
X1316Y2911D01*
X1314Y2911D01*
X1314Y2907D01*
X1312Y2907D01*
X1312Y2903D01*
X1310Y2903D01*
X1310Y2901D01*
X1308Y2901D01*
X1308Y2899D01*
X1306Y2899D01*
X1306Y2897D01*
X1304Y2897D01*
X1304Y2895D01*
X1302Y2895D01*
X1302Y2893D01*
X1300Y2893D01*
X1300Y2891D01*
X1298Y2891D01*
X1298Y2889D01*
X1294Y2889D01*
X1294Y2887D01*
X2034Y2887D01*
X2034Y2889D01*
X2024Y2889D01*
X2024Y2891D01*
X2018Y2891D01*
X2018Y2893D01*
X2014Y2893D01*
X2014Y2895D01*
X2010Y2895D01*
X2010Y2897D01*
X2008Y2897D01*
X2008Y2899D01*
X2006Y2899D01*
X2006Y2901D01*
X2002Y2901D01*
X2002Y2903D01*
X2000Y2903D01*
X2000Y2905D01*
X1998Y2905D01*
X1998Y2907D01*
X1996Y2907D01*
X1996Y2911D01*
X1994Y2911D01*
X1994Y2913D01*
X1992Y2913D01*
X1992Y2915D01*
X1990Y2915D01*
X1990Y2919D01*
X1988Y2919D01*
X1988Y2923D01*
X1986Y2923D01*
X1986Y2929D01*
X1984Y2929D01*
X1984Y2941D01*
X1982Y2941D01*
X1982Y2951D01*
X1984Y2951D01*
X1984Y2961D01*
X1986Y2961D01*
X1986Y2967D01*
X1988Y2967D01*
X1988Y2971D01*
X1990Y2971D01*
X1990Y2975D01*
X1992Y2975D01*
X1992Y2979D01*
X1994Y2979D01*
X1994Y2981D01*
X1996Y2981D01*
X1996Y2983D01*
X1998Y2983D01*
X1998Y2985D01*
X2000Y2985D01*
X2000Y2987D01*
X2002Y2987D01*
X2002Y2989D01*
X2004Y2989D01*
X2004Y2991D01*
X2006Y2991D01*
X2006Y2993D01*
X2010Y2993D01*
X2010Y2995D01*
X2012Y2995D01*
X2012Y2997D01*
X2016Y2997D01*
X2016Y2999D01*
X2022Y2999D01*
X2022Y3001D01*
X2028Y3001D01*
X2028Y3003D01*
X1310Y3003D01*
G37*
D02*
G36*
X2054Y3003D02*
X2054Y3001D01*
X2060Y3001D01*
X2060Y2999D01*
X2066Y2999D01*
X2066Y2997D01*
X2070Y2997D01*
X2070Y2995D01*
X2072Y2995D01*
X2072Y2993D01*
X2076Y2993D01*
X2076Y2991D01*
X2078Y2991D01*
X2078Y2989D01*
X2080Y2989D01*
X2080Y2987D01*
X2082Y2987D01*
X2082Y2985D01*
X2084Y2985D01*
X2084Y2983D01*
X2086Y2983D01*
X2086Y2981D01*
X2088Y2981D01*
X2088Y2977D01*
X2090Y2977D01*
X2090Y2975D01*
X2092Y2975D01*
X2092Y2971D01*
X2094Y2971D01*
X2094Y2965D01*
X2096Y2965D01*
X2096Y2959D01*
X2098Y2959D01*
X2098Y2931D01*
X2096Y2931D01*
X2096Y2925D01*
X2094Y2925D01*
X2094Y2921D01*
X2092Y2921D01*
X2092Y2917D01*
X2090Y2917D01*
X2090Y2913D01*
X2088Y2913D01*
X2088Y2911D01*
X2086Y2911D01*
X2086Y2909D01*
X2084Y2909D01*
X2084Y2905D01*
X2082Y2905D01*
X2082Y2903D01*
X2078Y2903D01*
X2078Y2901D01*
X2076Y2901D01*
X2076Y2899D01*
X2074Y2899D01*
X2074Y2897D01*
X2070Y2897D01*
X2070Y2895D01*
X2068Y2895D01*
X2068Y2893D01*
X2064Y2893D01*
X2064Y2891D01*
X2058Y2891D01*
X2058Y2889D01*
X2048Y2889D01*
X2048Y2887D01*
X3026Y2887D01*
X3026Y2889D01*
X3012Y2889D01*
X3012Y2891D01*
X3006Y2891D01*
X3006Y2893D01*
X3002Y2893D01*
X3002Y2895D01*
X2998Y2895D01*
X2998Y2897D01*
X2994Y2897D01*
X2994Y2899D01*
X2992Y2899D01*
X2992Y2901D01*
X2990Y2901D01*
X2990Y2903D01*
X2988Y2903D01*
X2988Y2905D01*
X2986Y2905D01*
X2986Y2907D01*
X2984Y2907D01*
X2984Y2909D01*
X2982Y2909D01*
X2982Y2911D01*
X2980Y2911D01*
X2980Y2915D01*
X2978Y2915D01*
X2978Y2917D01*
X2976Y2917D01*
X2976Y2921D01*
X2974Y2921D01*
X2974Y2927D01*
X2972Y2927D01*
X2972Y2933D01*
X2970Y2933D01*
X2970Y2959D01*
X2972Y2959D01*
X2972Y2965D01*
X2974Y2965D01*
X2974Y2971D01*
X2976Y2971D01*
X2976Y2975D01*
X2978Y2975D01*
X2978Y2977D01*
X2980Y2977D01*
X2980Y2981D01*
X2982Y2981D01*
X2982Y2983D01*
X2984Y2983D01*
X2984Y2985D01*
X2986Y2985D01*
X2986Y2987D01*
X2988Y2987D01*
X2988Y2989D01*
X2990Y2989D01*
X2990Y2991D01*
X2992Y2991D01*
X2992Y2993D01*
X2996Y2993D01*
X2996Y2995D01*
X2998Y2995D01*
X2998Y2997D01*
X3002Y2997D01*
X3002Y2999D01*
X3006Y2999D01*
X3006Y3001D01*
X3014Y3001D01*
X3014Y3003D01*
X2054Y3003D01*
G37*
D02*
G36*
X1294Y2887D02*
X1294Y2885D01*
X3578Y2885D01*
X3578Y2887D01*
X1294Y2887D01*
G37*
D02*
G36*
X1294Y2887D02*
X1294Y2885D01*
X3578Y2885D01*
X3578Y2887D01*
X1294Y2887D01*
G37*
D02*
G36*
X1294Y2887D02*
X1294Y2885D01*
X3578Y2885D01*
X3578Y2887D01*
X1294Y2887D01*
G37*
D02*
G36*
X1294Y2885D02*
X1294Y2869D01*
X1296Y2869D01*
X1296Y2867D01*
X1300Y2867D01*
X1300Y2865D01*
X1302Y2865D01*
X1302Y2863D01*
X1304Y2863D01*
X1304Y2861D01*
X1306Y2861D01*
X1306Y2859D01*
X1308Y2859D01*
X1308Y2857D01*
X1310Y2857D01*
X1310Y2853D01*
X1312Y2853D01*
X1312Y2851D01*
X1314Y2851D01*
X1314Y2847D01*
X1316Y2847D01*
X1316Y2839D01*
X1318Y2839D01*
X1318Y2817D01*
X1316Y2817D01*
X1316Y2811D01*
X1314Y2811D01*
X1314Y2807D01*
X1312Y2807D01*
X1312Y2803D01*
X1310Y2803D01*
X1310Y2801D01*
X1308Y2801D01*
X1308Y2799D01*
X1306Y2799D01*
X1306Y2797D01*
X1304Y2797D01*
X1304Y2795D01*
X1302Y2795D01*
X1302Y2793D01*
X1300Y2793D01*
X1300Y2791D01*
X1298Y2791D01*
X1298Y2789D01*
X1294Y2789D01*
X1294Y2769D01*
X1296Y2769D01*
X1296Y2767D01*
X1300Y2767D01*
X1300Y2765D01*
X1302Y2765D01*
X1302Y2763D01*
X1304Y2763D01*
X1304Y2761D01*
X1306Y2761D01*
X1306Y2759D01*
X1308Y2759D01*
X1308Y2757D01*
X1310Y2757D01*
X1310Y2753D01*
X1312Y2753D01*
X1312Y2751D01*
X1314Y2751D01*
X1314Y2747D01*
X1316Y2747D01*
X1316Y2739D01*
X1318Y2739D01*
X1318Y2717D01*
X1316Y2717D01*
X1316Y2711D01*
X1314Y2711D01*
X1314Y2707D01*
X1312Y2707D01*
X1312Y2703D01*
X1310Y2703D01*
X1310Y2701D01*
X1308Y2701D01*
X1308Y2699D01*
X1306Y2699D01*
X1306Y2697D01*
X1304Y2697D01*
X1304Y2695D01*
X1302Y2695D01*
X1302Y2693D01*
X1300Y2693D01*
X1300Y2691D01*
X1298Y2691D01*
X1298Y2689D01*
X1294Y2689D01*
X1294Y2669D01*
X1296Y2669D01*
X1296Y2667D01*
X1300Y2667D01*
X1300Y2665D01*
X1302Y2665D01*
X1302Y2663D01*
X1304Y2663D01*
X1304Y2661D01*
X1306Y2661D01*
X1306Y2659D01*
X1308Y2659D01*
X1308Y2657D01*
X1310Y2657D01*
X1310Y2653D01*
X1312Y2653D01*
X1312Y2651D01*
X1314Y2651D01*
X1314Y2647D01*
X1316Y2647D01*
X1316Y2639D01*
X1318Y2639D01*
X1318Y2617D01*
X1316Y2617D01*
X1316Y2611D01*
X1314Y2611D01*
X1314Y2607D01*
X1312Y2607D01*
X1312Y2603D01*
X1310Y2603D01*
X1310Y2601D01*
X1308Y2601D01*
X1308Y2599D01*
X1306Y2599D01*
X1306Y2597D01*
X1304Y2597D01*
X1304Y2595D01*
X1302Y2595D01*
X1302Y2593D01*
X1300Y2593D01*
X1300Y2591D01*
X1298Y2591D01*
X1298Y2589D01*
X1294Y2589D01*
X1294Y2569D01*
X1296Y2569D01*
X1296Y2567D01*
X1300Y2567D01*
X1300Y2565D01*
X1302Y2565D01*
X1302Y2563D01*
X1304Y2563D01*
X1304Y2561D01*
X1306Y2561D01*
X1306Y2559D01*
X1308Y2559D01*
X1308Y2557D01*
X1310Y2557D01*
X1310Y2553D01*
X1312Y2553D01*
X1312Y2551D01*
X1314Y2551D01*
X1314Y2547D01*
X1316Y2547D01*
X1316Y2539D01*
X1318Y2539D01*
X1318Y2517D01*
X1316Y2517D01*
X1316Y2511D01*
X1314Y2511D01*
X1314Y2507D01*
X1312Y2507D01*
X1312Y2503D01*
X1310Y2503D01*
X1310Y2501D01*
X1308Y2501D01*
X1308Y2499D01*
X1306Y2499D01*
X1306Y2497D01*
X1304Y2497D01*
X1304Y2495D01*
X1302Y2495D01*
X1302Y2493D01*
X1300Y2493D01*
X1300Y2491D01*
X1298Y2491D01*
X1298Y2489D01*
X1294Y2489D01*
X1294Y2469D01*
X1296Y2469D01*
X1296Y2467D01*
X1300Y2467D01*
X1300Y2465D01*
X1302Y2465D01*
X1302Y2463D01*
X1304Y2463D01*
X1304Y2461D01*
X1306Y2461D01*
X1306Y2459D01*
X1308Y2459D01*
X1308Y2457D01*
X1310Y2457D01*
X1310Y2453D01*
X1312Y2453D01*
X1312Y2451D01*
X1314Y2451D01*
X1314Y2447D01*
X1316Y2447D01*
X1316Y2439D01*
X1318Y2439D01*
X1318Y2417D01*
X1316Y2417D01*
X1316Y2411D01*
X1314Y2411D01*
X1314Y2407D01*
X1312Y2407D01*
X1312Y2403D01*
X1310Y2403D01*
X1310Y2401D01*
X1308Y2401D01*
X1308Y2399D01*
X1306Y2399D01*
X1306Y2397D01*
X1304Y2397D01*
X1304Y2395D01*
X1302Y2395D01*
X1302Y2393D01*
X1300Y2393D01*
X1300Y2391D01*
X1298Y2391D01*
X1298Y2389D01*
X1294Y2389D01*
X1294Y2369D01*
X1296Y2369D01*
X1296Y2367D01*
X1300Y2367D01*
X1300Y2365D01*
X1302Y2365D01*
X1302Y2363D01*
X1304Y2363D01*
X1304Y2361D01*
X1306Y2361D01*
X1306Y2359D01*
X1308Y2359D01*
X1308Y2357D01*
X1310Y2357D01*
X1310Y2353D01*
X1312Y2353D01*
X1312Y2351D01*
X1314Y2351D01*
X1314Y2347D01*
X1316Y2347D01*
X1316Y2339D01*
X1318Y2339D01*
X1318Y2317D01*
X1316Y2317D01*
X1316Y2311D01*
X1314Y2311D01*
X1314Y2307D01*
X1312Y2307D01*
X1312Y2303D01*
X1310Y2303D01*
X1310Y2301D01*
X1308Y2301D01*
X1308Y2299D01*
X1306Y2299D01*
X1306Y2297D01*
X1304Y2297D01*
X1304Y2295D01*
X1302Y2295D01*
X1302Y2293D01*
X1300Y2293D01*
X1300Y2291D01*
X1298Y2291D01*
X1298Y2289D01*
X1294Y2289D01*
X1294Y2269D01*
X1296Y2269D01*
X1296Y2267D01*
X1300Y2267D01*
X1300Y2265D01*
X1302Y2265D01*
X1302Y2263D01*
X1304Y2263D01*
X1304Y2261D01*
X1306Y2261D01*
X1306Y2259D01*
X1308Y2259D01*
X1308Y2257D01*
X1310Y2257D01*
X1310Y2253D01*
X1312Y2253D01*
X1312Y2251D01*
X1314Y2251D01*
X1314Y2247D01*
X1316Y2247D01*
X1316Y2239D01*
X1318Y2239D01*
X1318Y2217D01*
X1316Y2217D01*
X1316Y2211D01*
X1314Y2211D01*
X1314Y2207D01*
X1312Y2207D01*
X1312Y2203D01*
X1310Y2203D01*
X1310Y2201D01*
X1308Y2201D01*
X1308Y2199D01*
X1306Y2199D01*
X1306Y2197D01*
X1304Y2197D01*
X1304Y2195D01*
X1302Y2195D01*
X1302Y2193D01*
X1300Y2193D01*
X1300Y2191D01*
X1298Y2191D01*
X1298Y2189D01*
X1294Y2189D01*
X1294Y2187D01*
X1290Y2187D01*
X1290Y2185D01*
X1282Y2185D01*
X1282Y2183D01*
X3578Y2183D01*
X3578Y2885D01*
X1294Y2885D01*
G37*
D02*
G36*
X40Y2183D02*
X40Y2181D01*
X3578Y2181D01*
X3578Y2183D01*
X40Y2183D01*
G37*
D02*
G36*
X40Y2183D02*
X40Y2181D01*
X3578Y2181D01*
X3578Y2183D01*
X40Y2183D01*
G37*
D02*
G36*
X40Y2183D02*
X40Y2181D01*
X3578Y2181D01*
X3578Y2183D01*
X40Y2183D01*
G37*
D02*
G36*
X40Y2181D02*
X40Y1777D01*
X408Y1777D01*
X408Y1775D01*
X416Y1775D01*
X416Y1773D01*
X420Y1773D01*
X420Y1771D01*
X424Y1771D01*
X424Y1769D01*
X428Y1769D01*
X428Y1767D01*
X430Y1767D01*
X430Y1765D01*
X432Y1765D01*
X432Y1763D01*
X434Y1763D01*
X434Y1761D01*
X436Y1761D01*
X436Y1759D01*
X438Y1759D01*
X438Y1755D01*
X440Y1755D01*
X440Y1753D01*
X442Y1753D01*
X442Y1749D01*
X444Y1749D01*
X444Y1741D01*
X446Y1741D01*
X446Y1719D01*
X444Y1719D01*
X444Y1711D01*
X442Y1711D01*
X442Y1709D01*
X440Y1709D01*
X440Y1705D01*
X438Y1705D01*
X438Y1701D01*
X436Y1701D01*
X436Y1699D01*
X434Y1699D01*
X434Y1697D01*
X432Y1697D01*
X432Y1695D01*
X430Y1695D01*
X430Y1693D01*
X428Y1693D01*
X428Y1691D01*
X424Y1691D01*
X424Y1669D01*
X428Y1669D01*
X428Y1667D01*
X430Y1667D01*
X430Y1665D01*
X432Y1665D01*
X432Y1663D01*
X434Y1663D01*
X434Y1661D01*
X436Y1661D01*
X436Y1659D01*
X438Y1659D01*
X438Y1655D01*
X440Y1655D01*
X440Y1653D01*
X442Y1653D01*
X442Y1649D01*
X444Y1649D01*
X444Y1641D01*
X446Y1641D01*
X446Y1619D01*
X444Y1619D01*
X444Y1611D01*
X442Y1611D01*
X442Y1609D01*
X440Y1609D01*
X440Y1605D01*
X438Y1605D01*
X438Y1601D01*
X436Y1601D01*
X436Y1599D01*
X434Y1599D01*
X434Y1597D01*
X432Y1597D01*
X432Y1595D01*
X430Y1595D01*
X430Y1593D01*
X428Y1593D01*
X428Y1591D01*
X424Y1591D01*
X424Y1569D01*
X428Y1569D01*
X428Y1567D01*
X430Y1567D01*
X430Y1565D01*
X432Y1565D01*
X432Y1563D01*
X434Y1563D01*
X434Y1561D01*
X436Y1561D01*
X436Y1559D01*
X438Y1559D01*
X438Y1555D01*
X440Y1555D01*
X440Y1553D01*
X442Y1553D01*
X442Y1549D01*
X444Y1549D01*
X444Y1541D01*
X446Y1541D01*
X446Y1519D01*
X444Y1519D01*
X444Y1511D01*
X442Y1511D01*
X442Y1509D01*
X440Y1509D01*
X440Y1505D01*
X438Y1505D01*
X438Y1501D01*
X436Y1501D01*
X436Y1499D01*
X434Y1499D01*
X434Y1497D01*
X432Y1497D01*
X432Y1495D01*
X430Y1495D01*
X430Y1493D01*
X428Y1493D01*
X428Y1491D01*
X424Y1491D01*
X424Y1469D01*
X428Y1469D01*
X428Y1467D01*
X430Y1467D01*
X430Y1465D01*
X432Y1465D01*
X432Y1463D01*
X434Y1463D01*
X434Y1461D01*
X436Y1461D01*
X436Y1459D01*
X438Y1459D01*
X438Y1455D01*
X440Y1455D01*
X440Y1453D01*
X442Y1453D01*
X442Y1449D01*
X444Y1449D01*
X444Y1441D01*
X446Y1441D01*
X446Y1419D01*
X444Y1419D01*
X444Y1411D01*
X442Y1411D01*
X442Y1409D01*
X440Y1409D01*
X440Y1405D01*
X438Y1405D01*
X438Y1401D01*
X436Y1401D01*
X436Y1399D01*
X434Y1399D01*
X434Y1397D01*
X432Y1397D01*
X432Y1395D01*
X430Y1395D01*
X430Y1393D01*
X428Y1393D01*
X428Y1391D01*
X424Y1391D01*
X424Y1377D01*
X1008Y1377D01*
X1008Y1375D01*
X1016Y1375D01*
X1016Y1373D01*
X1020Y1373D01*
X1020Y1371D01*
X1024Y1371D01*
X1024Y1369D01*
X1028Y1369D01*
X1028Y1367D01*
X1030Y1367D01*
X1030Y1365D01*
X1032Y1365D01*
X1032Y1363D01*
X1034Y1363D01*
X1034Y1361D01*
X1036Y1361D01*
X1036Y1359D01*
X1038Y1359D01*
X1038Y1355D01*
X1040Y1355D01*
X1040Y1353D01*
X1042Y1353D01*
X1042Y1349D01*
X1044Y1349D01*
X1044Y1341D01*
X1046Y1341D01*
X1046Y1319D01*
X1044Y1319D01*
X1044Y1311D01*
X1042Y1311D01*
X1042Y1309D01*
X1040Y1309D01*
X1040Y1305D01*
X1038Y1305D01*
X1038Y1301D01*
X1036Y1301D01*
X1036Y1299D01*
X1034Y1299D01*
X1034Y1297D01*
X1032Y1297D01*
X1032Y1295D01*
X1030Y1295D01*
X1030Y1293D01*
X1028Y1293D01*
X1028Y1291D01*
X1024Y1291D01*
X1024Y1269D01*
X1028Y1269D01*
X1028Y1267D01*
X1030Y1267D01*
X1030Y1265D01*
X1032Y1265D01*
X1032Y1263D01*
X1034Y1263D01*
X1034Y1261D01*
X1036Y1261D01*
X1036Y1259D01*
X1038Y1259D01*
X1038Y1255D01*
X1040Y1255D01*
X1040Y1253D01*
X1042Y1253D01*
X1042Y1249D01*
X1044Y1249D01*
X1044Y1241D01*
X1046Y1241D01*
X1046Y1219D01*
X1044Y1219D01*
X1044Y1211D01*
X1042Y1211D01*
X1042Y1209D01*
X1040Y1209D01*
X1040Y1205D01*
X1038Y1205D01*
X1038Y1201D01*
X1036Y1201D01*
X1036Y1199D01*
X1034Y1199D01*
X1034Y1197D01*
X1032Y1197D01*
X1032Y1195D01*
X1030Y1195D01*
X1030Y1193D01*
X1028Y1193D01*
X1028Y1191D01*
X1024Y1191D01*
X1024Y1169D01*
X1028Y1169D01*
X1028Y1167D01*
X1030Y1167D01*
X1030Y1165D01*
X1032Y1165D01*
X1032Y1163D01*
X1034Y1163D01*
X1034Y1161D01*
X1036Y1161D01*
X1036Y1159D01*
X1038Y1159D01*
X1038Y1155D01*
X1040Y1155D01*
X1040Y1153D01*
X1042Y1153D01*
X1042Y1149D01*
X1044Y1149D01*
X1044Y1141D01*
X1046Y1141D01*
X1046Y1119D01*
X1044Y1119D01*
X1044Y1111D01*
X1042Y1111D01*
X1042Y1109D01*
X1040Y1109D01*
X1040Y1105D01*
X1038Y1105D01*
X1038Y1101D01*
X1036Y1101D01*
X1036Y1099D01*
X1034Y1099D01*
X1034Y1097D01*
X1032Y1097D01*
X1032Y1095D01*
X1030Y1095D01*
X1030Y1093D01*
X1028Y1093D01*
X1028Y1091D01*
X1024Y1091D01*
X1024Y1069D01*
X1028Y1069D01*
X1028Y1067D01*
X1030Y1067D01*
X1030Y1065D01*
X1032Y1065D01*
X1032Y1063D01*
X1034Y1063D01*
X1034Y1061D01*
X1036Y1061D01*
X1036Y1059D01*
X1038Y1059D01*
X1038Y1055D01*
X1040Y1055D01*
X1040Y1053D01*
X1042Y1053D01*
X1042Y1049D01*
X1044Y1049D01*
X1044Y1041D01*
X1046Y1041D01*
X1046Y1019D01*
X1044Y1019D01*
X1044Y1011D01*
X1042Y1011D01*
X1042Y1009D01*
X1040Y1009D01*
X1040Y1005D01*
X1038Y1005D01*
X1038Y1001D01*
X1036Y1001D01*
X1036Y999D01*
X1034Y999D01*
X1034Y997D01*
X1032Y997D01*
X1032Y995D01*
X1030Y995D01*
X1030Y993D01*
X1028Y993D01*
X1028Y991D01*
X1024Y991D01*
X1024Y969D01*
X1028Y969D01*
X1028Y967D01*
X1030Y967D01*
X1030Y965D01*
X3034Y965D01*
X3034Y963D01*
X3044Y963D01*
X3044Y961D01*
X3050Y961D01*
X3050Y959D01*
X3054Y959D01*
X3054Y957D01*
X3058Y957D01*
X3058Y955D01*
X3060Y955D01*
X3060Y953D01*
X3064Y953D01*
X3064Y951D01*
X3066Y951D01*
X3066Y949D01*
X3068Y949D01*
X3068Y947D01*
X3070Y947D01*
X3070Y945D01*
X3072Y945D01*
X3072Y943D01*
X3074Y943D01*
X3074Y939D01*
X3076Y939D01*
X3076Y937D01*
X3078Y937D01*
X3078Y933D01*
X3080Y933D01*
X3080Y929D01*
X3082Y929D01*
X3082Y923D01*
X3084Y923D01*
X3084Y913D01*
X3086Y913D01*
X3086Y899D01*
X3084Y899D01*
X3084Y889D01*
X3082Y889D01*
X3082Y885D01*
X3080Y885D01*
X3080Y879D01*
X3078Y879D01*
X3078Y877D01*
X3076Y877D01*
X3076Y873D01*
X3074Y873D01*
X3074Y871D01*
X3072Y871D01*
X3072Y869D01*
X3070Y869D01*
X3070Y867D01*
X3068Y867D01*
X3068Y865D01*
X3066Y865D01*
X3066Y863D01*
X3064Y863D01*
X3064Y861D01*
X3062Y861D01*
X3062Y859D01*
X3060Y859D01*
X3060Y857D01*
X3056Y857D01*
X3056Y855D01*
X3052Y855D01*
X3052Y853D01*
X3048Y853D01*
X3048Y851D01*
X3040Y851D01*
X3040Y849D01*
X3578Y849D01*
X3578Y2181D01*
X40Y2181D01*
G37*
D02*
G36*
X40Y1777D02*
X40Y195D01*
X130Y195D01*
X130Y193D01*
X144Y193D01*
X144Y191D01*
X150Y191D01*
X150Y189D01*
X154Y189D01*
X154Y187D01*
X156Y187D01*
X156Y185D01*
X160Y185D01*
X160Y183D01*
X390Y183D01*
X390Y185D01*
X384Y185D01*
X384Y187D01*
X380Y187D01*
X380Y189D01*
X376Y189D01*
X376Y191D01*
X372Y191D01*
X372Y193D01*
X370Y193D01*
X370Y195D01*
X368Y195D01*
X368Y197D01*
X366Y197D01*
X366Y199D01*
X364Y199D01*
X364Y201D01*
X362Y201D01*
X362Y203D01*
X360Y203D01*
X360Y207D01*
X358Y207D01*
X358Y211D01*
X356Y211D01*
X356Y217D01*
X354Y217D01*
X354Y225D01*
X352Y225D01*
X352Y235D01*
X354Y235D01*
X354Y243D01*
X356Y243D01*
X356Y249D01*
X358Y249D01*
X358Y253D01*
X360Y253D01*
X360Y257D01*
X362Y257D01*
X362Y259D01*
X364Y259D01*
X364Y261D01*
X366Y261D01*
X366Y263D01*
X368Y263D01*
X368Y265D01*
X370Y265D01*
X370Y267D01*
X372Y267D01*
X372Y269D01*
X376Y269D01*
X376Y291D01*
X372Y291D01*
X372Y293D01*
X370Y293D01*
X370Y295D01*
X368Y295D01*
X368Y297D01*
X366Y297D01*
X366Y299D01*
X364Y299D01*
X364Y301D01*
X362Y301D01*
X362Y303D01*
X360Y303D01*
X360Y307D01*
X358Y307D01*
X358Y311D01*
X356Y311D01*
X356Y317D01*
X354Y317D01*
X354Y325D01*
X352Y325D01*
X352Y335D01*
X354Y335D01*
X354Y343D01*
X356Y343D01*
X356Y349D01*
X358Y349D01*
X358Y353D01*
X360Y353D01*
X360Y357D01*
X362Y357D01*
X362Y359D01*
X364Y359D01*
X364Y361D01*
X366Y361D01*
X366Y363D01*
X368Y363D01*
X368Y365D01*
X370Y365D01*
X370Y367D01*
X372Y367D01*
X372Y369D01*
X376Y369D01*
X376Y391D01*
X372Y391D01*
X372Y393D01*
X370Y393D01*
X370Y395D01*
X368Y395D01*
X368Y397D01*
X366Y397D01*
X366Y399D01*
X364Y399D01*
X364Y401D01*
X362Y401D01*
X362Y403D01*
X360Y403D01*
X360Y407D01*
X358Y407D01*
X358Y411D01*
X356Y411D01*
X356Y417D01*
X354Y417D01*
X354Y425D01*
X352Y425D01*
X352Y435D01*
X354Y435D01*
X354Y443D01*
X356Y443D01*
X356Y449D01*
X358Y449D01*
X358Y453D01*
X360Y453D01*
X360Y457D01*
X362Y457D01*
X362Y459D01*
X364Y459D01*
X364Y461D01*
X366Y461D01*
X366Y463D01*
X368Y463D01*
X368Y465D01*
X370Y465D01*
X370Y467D01*
X372Y467D01*
X372Y469D01*
X376Y469D01*
X376Y491D01*
X372Y491D01*
X372Y493D01*
X370Y493D01*
X370Y495D01*
X368Y495D01*
X368Y497D01*
X366Y497D01*
X366Y499D01*
X364Y499D01*
X364Y501D01*
X362Y501D01*
X362Y503D01*
X360Y503D01*
X360Y507D01*
X358Y507D01*
X358Y511D01*
X356Y511D01*
X356Y517D01*
X354Y517D01*
X354Y525D01*
X352Y525D01*
X352Y535D01*
X354Y535D01*
X354Y543D01*
X356Y543D01*
X356Y549D01*
X358Y549D01*
X358Y553D01*
X360Y553D01*
X360Y557D01*
X362Y557D01*
X362Y559D01*
X364Y559D01*
X364Y561D01*
X366Y561D01*
X366Y563D01*
X368Y563D01*
X368Y565D01*
X370Y565D01*
X370Y567D01*
X372Y567D01*
X372Y569D01*
X376Y569D01*
X376Y591D01*
X372Y591D01*
X372Y593D01*
X370Y593D01*
X370Y595D01*
X368Y595D01*
X368Y597D01*
X366Y597D01*
X366Y599D01*
X364Y599D01*
X364Y601D01*
X362Y601D01*
X362Y603D01*
X360Y603D01*
X360Y607D01*
X358Y607D01*
X358Y611D01*
X356Y611D01*
X356Y617D01*
X354Y617D01*
X354Y625D01*
X352Y625D01*
X352Y635D01*
X354Y635D01*
X354Y643D01*
X356Y643D01*
X356Y649D01*
X358Y649D01*
X358Y653D01*
X360Y653D01*
X360Y657D01*
X362Y657D01*
X362Y659D01*
X364Y659D01*
X364Y661D01*
X366Y661D01*
X366Y663D01*
X368Y663D01*
X368Y665D01*
X370Y665D01*
X370Y667D01*
X372Y667D01*
X372Y669D01*
X376Y669D01*
X376Y691D01*
X372Y691D01*
X372Y693D01*
X370Y693D01*
X370Y695D01*
X368Y695D01*
X368Y697D01*
X366Y697D01*
X366Y699D01*
X364Y699D01*
X364Y701D01*
X362Y701D01*
X362Y703D01*
X360Y703D01*
X360Y707D01*
X358Y707D01*
X358Y711D01*
X356Y711D01*
X356Y717D01*
X354Y717D01*
X354Y725D01*
X352Y725D01*
X352Y735D01*
X354Y735D01*
X354Y743D01*
X356Y743D01*
X356Y749D01*
X358Y749D01*
X358Y753D01*
X360Y753D01*
X360Y757D01*
X362Y757D01*
X362Y759D01*
X364Y759D01*
X364Y761D01*
X366Y761D01*
X366Y763D01*
X368Y763D01*
X368Y765D01*
X370Y765D01*
X370Y767D01*
X372Y767D01*
X372Y769D01*
X376Y769D01*
X376Y791D01*
X372Y791D01*
X372Y793D01*
X370Y793D01*
X370Y795D01*
X368Y795D01*
X368Y797D01*
X366Y797D01*
X366Y799D01*
X364Y799D01*
X364Y801D01*
X362Y801D01*
X362Y803D01*
X360Y803D01*
X360Y807D01*
X358Y807D01*
X358Y811D01*
X356Y811D01*
X356Y817D01*
X354Y817D01*
X354Y825D01*
X352Y825D01*
X352Y835D01*
X354Y835D01*
X354Y843D01*
X356Y843D01*
X356Y849D01*
X358Y849D01*
X358Y853D01*
X360Y853D01*
X360Y857D01*
X362Y857D01*
X362Y859D01*
X364Y859D01*
X364Y861D01*
X366Y861D01*
X366Y863D01*
X368Y863D01*
X368Y865D01*
X370Y865D01*
X370Y867D01*
X372Y867D01*
X372Y869D01*
X376Y869D01*
X376Y891D01*
X372Y891D01*
X372Y893D01*
X370Y893D01*
X370Y895D01*
X368Y895D01*
X368Y897D01*
X366Y897D01*
X366Y899D01*
X364Y899D01*
X364Y901D01*
X362Y901D01*
X362Y903D01*
X360Y903D01*
X360Y907D01*
X358Y907D01*
X358Y911D01*
X356Y911D01*
X356Y917D01*
X354Y917D01*
X354Y925D01*
X352Y925D01*
X352Y935D01*
X354Y935D01*
X354Y943D01*
X356Y943D01*
X356Y949D01*
X358Y949D01*
X358Y953D01*
X360Y953D01*
X360Y957D01*
X362Y957D01*
X362Y959D01*
X364Y959D01*
X364Y961D01*
X366Y961D01*
X366Y963D01*
X368Y963D01*
X368Y965D01*
X370Y965D01*
X370Y967D01*
X372Y967D01*
X372Y969D01*
X376Y969D01*
X376Y991D01*
X372Y991D01*
X372Y993D01*
X370Y993D01*
X370Y995D01*
X368Y995D01*
X368Y997D01*
X366Y997D01*
X366Y999D01*
X364Y999D01*
X364Y1001D01*
X362Y1001D01*
X362Y1003D01*
X360Y1003D01*
X360Y1007D01*
X358Y1007D01*
X358Y1011D01*
X356Y1011D01*
X356Y1017D01*
X354Y1017D01*
X354Y1025D01*
X352Y1025D01*
X352Y1035D01*
X354Y1035D01*
X354Y1043D01*
X356Y1043D01*
X356Y1049D01*
X358Y1049D01*
X358Y1053D01*
X360Y1053D01*
X360Y1057D01*
X362Y1057D01*
X362Y1059D01*
X364Y1059D01*
X364Y1061D01*
X366Y1061D01*
X366Y1063D01*
X368Y1063D01*
X368Y1065D01*
X370Y1065D01*
X370Y1067D01*
X372Y1067D01*
X372Y1069D01*
X376Y1069D01*
X376Y1091D01*
X372Y1091D01*
X372Y1093D01*
X370Y1093D01*
X370Y1095D01*
X368Y1095D01*
X368Y1097D01*
X366Y1097D01*
X366Y1099D01*
X364Y1099D01*
X364Y1101D01*
X362Y1101D01*
X362Y1103D01*
X360Y1103D01*
X360Y1107D01*
X358Y1107D01*
X358Y1111D01*
X356Y1111D01*
X356Y1117D01*
X354Y1117D01*
X354Y1125D01*
X352Y1125D01*
X352Y1135D01*
X354Y1135D01*
X354Y1143D01*
X356Y1143D01*
X356Y1149D01*
X358Y1149D01*
X358Y1153D01*
X360Y1153D01*
X360Y1157D01*
X362Y1157D01*
X362Y1159D01*
X364Y1159D01*
X364Y1161D01*
X366Y1161D01*
X366Y1163D01*
X368Y1163D01*
X368Y1165D01*
X370Y1165D01*
X370Y1167D01*
X372Y1167D01*
X372Y1169D01*
X376Y1169D01*
X376Y1191D01*
X372Y1191D01*
X372Y1193D01*
X370Y1193D01*
X370Y1195D01*
X368Y1195D01*
X368Y1197D01*
X366Y1197D01*
X366Y1199D01*
X364Y1199D01*
X364Y1201D01*
X362Y1201D01*
X362Y1203D01*
X360Y1203D01*
X360Y1207D01*
X358Y1207D01*
X358Y1211D01*
X356Y1211D01*
X356Y1217D01*
X354Y1217D01*
X354Y1225D01*
X352Y1225D01*
X352Y1235D01*
X354Y1235D01*
X354Y1243D01*
X356Y1243D01*
X356Y1249D01*
X358Y1249D01*
X358Y1253D01*
X360Y1253D01*
X360Y1257D01*
X362Y1257D01*
X362Y1259D01*
X364Y1259D01*
X364Y1261D01*
X366Y1261D01*
X366Y1263D01*
X368Y1263D01*
X368Y1265D01*
X370Y1265D01*
X370Y1267D01*
X372Y1267D01*
X372Y1269D01*
X376Y1269D01*
X376Y1291D01*
X372Y1291D01*
X372Y1293D01*
X370Y1293D01*
X370Y1295D01*
X368Y1295D01*
X368Y1297D01*
X366Y1297D01*
X366Y1299D01*
X364Y1299D01*
X364Y1301D01*
X362Y1301D01*
X362Y1303D01*
X360Y1303D01*
X360Y1307D01*
X358Y1307D01*
X358Y1311D01*
X356Y1311D01*
X356Y1317D01*
X354Y1317D01*
X354Y1325D01*
X352Y1325D01*
X352Y1335D01*
X354Y1335D01*
X354Y1343D01*
X356Y1343D01*
X356Y1349D01*
X358Y1349D01*
X358Y1353D01*
X360Y1353D01*
X360Y1357D01*
X362Y1357D01*
X362Y1359D01*
X364Y1359D01*
X364Y1361D01*
X366Y1361D01*
X366Y1363D01*
X368Y1363D01*
X368Y1365D01*
X370Y1365D01*
X370Y1367D01*
X372Y1367D01*
X372Y1369D01*
X376Y1369D01*
X376Y1391D01*
X372Y1391D01*
X372Y1393D01*
X370Y1393D01*
X370Y1395D01*
X368Y1395D01*
X368Y1397D01*
X366Y1397D01*
X366Y1399D01*
X364Y1399D01*
X364Y1401D01*
X362Y1401D01*
X362Y1403D01*
X360Y1403D01*
X360Y1407D01*
X358Y1407D01*
X358Y1411D01*
X356Y1411D01*
X356Y1417D01*
X354Y1417D01*
X354Y1425D01*
X352Y1425D01*
X352Y1435D01*
X354Y1435D01*
X354Y1443D01*
X356Y1443D01*
X356Y1449D01*
X358Y1449D01*
X358Y1453D01*
X360Y1453D01*
X360Y1457D01*
X362Y1457D01*
X362Y1459D01*
X364Y1459D01*
X364Y1461D01*
X366Y1461D01*
X366Y1463D01*
X368Y1463D01*
X368Y1465D01*
X370Y1465D01*
X370Y1467D01*
X372Y1467D01*
X372Y1469D01*
X376Y1469D01*
X376Y1491D01*
X372Y1491D01*
X372Y1493D01*
X370Y1493D01*
X370Y1495D01*
X368Y1495D01*
X368Y1497D01*
X366Y1497D01*
X366Y1499D01*
X364Y1499D01*
X364Y1501D01*
X362Y1501D01*
X362Y1503D01*
X360Y1503D01*
X360Y1507D01*
X358Y1507D01*
X358Y1511D01*
X356Y1511D01*
X356Y1517D01*
X354Y1517D01*
X354Y1525D01*
X352Y1525D01*
X352Y1535D01*
X354Y1535D01*
X354Y1543D01*
X356Y1543D01*
X356Y1549D01*
X358Y1549D01*
X358Y1553D01*
X360Y1553D01*
X360Y1557D01*
X362Y1557D01*
X362Y1559D01*
X364Y1559D01*
X364Y1561D01*
X366Y1561D01*
X366Y1563D01*
X368Y1563D01*
X368Y1565D01*
X370Y1565D01*
X370Y1567D01*
X372Y1567D01*
X372Y1569D01*
X376Y1569D01*
X376Y1591D01*
X372Y1591D01*
X372Y1593D01*
X370Y1593D01*
X370Y1595D01*
X368Y1595D01*
X368Y1597D01*
X366Y1597D01*
X366Y1599D01*
X364Y1599D01*
X364Y1601D01*
X362Y1601D01*
X362Y1603D01*
X360Y1603D01*
X360Y1607D01*
X358Y1607D01*
X358Y1611D01*
X356Y1611D01*
X356Y1617D01*
X354Y1617D01*
X354Y1625D01*
X352Y1625D01*
X352Y1635D01*
X354Y1635D01*
X354Y1643D01*
X356Y1643D01*
X356Y1649D01*
X358Y1649D01*
X358Y1653D01*
X360Y1653D01*
X360Y1657D01*
X362Y1657D01*
X362Y1659D01*
X364Y1659D01*
X364Y1661D01*
X366Y1661D01*
X366Y1663D01*
X368Y1663D01*
X368Y1665D01*
X370Y1665D01*
X370Y1667D01*
X372Y1667D01*
X372Y1669D01*
X376Y1669D01*
X376Y1691D01*
X372Y1691D01*
X372Y1693D01*
X370Y1693D01*
X370Y1695D01*
X368Y1695D01*
X368Y1697D01*
X366Y1697D01*
X366Y1699D01*
X364Y1699D01*
X364Y1701D01*
X362Y1701D01*
X362Y1703D01*
X360Y1703D01*
X360Y1707D01*
X358Y1707D01*
X358Y1711D01*
X356Y1711D01*
X356Y1717D01*
X354Y1717D01*
X354Y1725D01*
X352Y1725D01*
X352Y1735D01*
X354Y1735D01*
X354Y1743D01*
X356Y1743D01*
X356Y1749D01*
X358Y1749D01*
X358Y1753D01*
X360Y1753D01*
X360Y1757D01*
X362Y1757D01*
X362Y1759D01*
X364Y1759D01*
X364Y1761D01*
X366Y1761D01*
X366Y1763D01*
X368Y1763D01*
X368Y1765D01*
X370Y1765D01*
X370Y1767D01*
X372Y1767D01*
X372Y1769D01*
X376Y1769D01*
X376Y1771D01*
X380Y1771D01*
X380Y1773D01*
X384Y1773D01*
X384Y1775D01*
X390Y1775D01*
X390Y1777D01*
X40Y1777D01*
G37*
D02*
G36*
X424Y1377D02*
X424Y1369D01*
X428Y1369D01*
X428Y1367D01*
X430Y1367D01*
X430Y1365D01*
X432Y1365D01*
X432Y1363D01*
X434Y1363D01*
X434Y1361D01*
X436Y1361D01*
X436Y1359D01*
X438Y1359D01*
X438Y1355D01*
X440Y1355D01*
X440Y1353D01*
X442Y1353D01*
X442Y1349D01*
X444Y1349D01*
X444Y1341D01*
X446Y1341D01*
X446Y1319D01*
X444Y1319D01*
X444Y1311D01*
X442Y1311D01*
X442Y1309D01*
X440Y1309D01*
X440Y1305D01*
X438Y1305D01*
X438Y1301D01*
X436Y1301D01*
X436Y1299D01*
X434Y1299D01*
X434Y1297D01*
X432Y1297D01*
X432Y1295D01*
X430Y1295D01*
X430Y1293D01*
X428Y1293D01*
X428Y1291D01*
X424Y1291D01*
X424Y1269D01*
X428Y1269D01*
X428Y1267D01*
X430Y1267D01*
X430Y1265D01*
X432Y1265D01*
X432Y1263D01*
X434Y1263D01*
X434Y1261D01*
X436Y1261D01*
X436Y1259D01*
X438Y1259D01*
X438Y1255D01*
X440Y1255D01*
X440Y1253D01*
X442Y1253D01*
X442Y1249D01*
X444Y1249D01*
X444Y1241D01*
X446Y1241D01*
X446Y1219D01*
X444Y1219D01*
X444Y1211D01*
X442Y1211D01*
X442Y1209D01*
X440Y1209D01*
X440Y1205D01*
X438Y1205D01*
X438Y1201D01*
X436Y1201D01*
X436Y1199D01*
X434Y1199D01*
X434Y1197D01*
X432Y1197D01*
X432Y1195D01*
X430Y1195D01*
X430Y1193D01*
X428Y1193D01*
X428Y1191D01*
X424Y1191D01*
X424Y1169D01*
X428Y1169D01*
X428Y1167D01*
X430Y1167D01*
X430Y1165D01*
X432Y1165D01*
X432Y1163D01*
X434Y1163D01*
X434Y1161D01*
X436Y1161D01*
X436Y1159D01*
X438Y1159D01*
X438Y1155D01*
X440Y1155D01*
X440Y1153D01*
X442Y1153D01*
X442Y1149D01*
X444Y1149D01*
X444Y1141D01*
X446Y1141D01*
X446Y1119D01*
X444Y1119D01*
X444Y1111D01*
X442Y1111D01*
X442Y1109D01*
X440Y1109D01*
X440Y1105D01*
X438Y1105D01*
X438Y1101D01*
X436Y1101D01*
X436Y1099D01*
X434Y1099D01*
X434Y1097D01*
X432Y1097D01*
X432Y1095D01*
X430Y1095D01*
X430Y1093D01*
X428Y1093D01*
X428Y1091D01*
X424Y1091D01*
X424Y1069D01*
X428Y1069D01*
X428Y1067D01*
X430Y1067D01*
X430Y1065D01*
X432Y1065D01*
X432Y1063D01*
X434Y1063D01*
X434Y1061D01*
X436Y1061D01*
X436Y1059D01*
X438Y1059D01*
X438Y1055D01*
X440Y1055D01*
X440Y1053D01*
X442Y1053D01*
X442Y1049D01*
X444Y1049D01*
X444Y1041D01*
X446Y1041D01*
X446Y1019D01*
X444Y1019D01*
X444Y1011D01*
X442Y1011D01*
X442Y1009D01*
X440Y1009D01*
X440Y1005D01*
X438Y1005D01*
X438Y1001D01*
X436Y1001D01*
X436Y999D01*
X434Y999D01*
X434Y997D01*
X432Y997D01*
X432Y995D01*
X430Y995D01*
X430Y993D01*
X428Y993D01*
X428Y991D01*
X424Y991D01*
X424Y969D01*
X428Y969D01*
X428Y967D01*
X430Y967D01*
X430Y965D01*
X432Y965D01*
X432Y963D01*
X434Y963D01*
X434Y961D01*
X436Y961D01*
X436Y959D01*
X438Y959D01*
X438Y955D01*
X440Y955D01*
X440Y953D01*
X442Y953D01*
X442Y949D01*
X444Y949D01*
X444Y941D01*
X446Y941D01*
X446Y919D01*
X444Y919D01*
X444Y911D01*
X442Y911D01*
X442Y909D01*
X440Y909D01*
X440Y905D01*
X438Y905D01*
X438Y901D01*
X436Y901D01*
X436Y899D01*
X434Y899D01*
X434Y897D01*
X432Y897D01*
X432Y895D01*
X430Y895D01*
X430Y893D01*
X428Y893D01*
X428Y891D01*
X424Y891D01*
X424Y869D01*
X428Y869D01*
X428Y867D01*
X430Y867D01*
X430Y865D01*
X432Y865D01*
X432Y863D01*
X434Y863D01*
X434Y861D01*
X436Y861D01*
X436Y859D01*
X438Y859D01*
X438Y855D01*
X440Y855D01*
X440Y853D01*
X442Y853D01*
X442Y849D01*
X444Y849D01*
X444Y841D01*
X446Y841D01*
X446Y819D01*
X444Y819D01*
X444Y811D01*
X442Y811D01*
X442Y809D01*
X440Y809D01*
X440Y805D01*
X438Y805D01*
X438Y801D01*
X436Y801D01*
X436Y799D01*
X434Y799D01*
X434Y797D01*
X432Y797D01*
X432Y795D01*
X430Y795D01*
X430Y793D01*
X428Y793D01*
X428Y791D01*
X424Y791D01*
X424Y769D01*
X428Y769D01*
X428Y767D01*
X430Y767D01*
X430Y765D01*
X432Y765D01*
X432Y763D01*
X434Y763D01*
X434Y761D01*
X436Y761D01*
X436Y759D01*
X438Y759D01*
X438Y755D01*
X440Y755D01*
X440Y753D01*
X442Y753D01*
X442Y749D01*
X444Y749D01*
X444Y741D01*
X446Y741D01*
X446Y719D01*
X444Y719D01*
X444Y711D01*
X442Y711D01*
X442Y709D01*
X440Y709D01*
X440Y705D01*
X438Y705D01*
X438Y701D01*
X436Y701D01*
X436Y699D01*
X434Y699D01*
X434Y697D01*
X432Y697D01*
X432Y695D01*
X430Y695D01*
X430Y693D01*
X428Y693D01*
X428Y691D01*
X424Y691D01*
X424Y669D01*
X428Y669D01*
X428Y667D01*
X430Y667D01*
X430Y665D01*
X432Y665D01*
X432Y663D01*
X434Y663D01*
X434Y661D01*
X436Y661D01*
X436Y659D01*
X438Y659D01*
X438Y655D01*
X440Y655D01*
X440Y653D01*
X442Y653D01*
X442Y649D01*
X444Y649D01*
X444Y641D01*
X446Y641D01*
X446Y619D01*
X444Y619D01*
X444Y611D01*
X442Y611D01*
X442Y609D01*
X440Y609D01*
X440Y605D01*
X438Y605D01*
X438Y601D01*
X436Y601D01*
X436Y599D01*
X434Y599D01*
X434Y597D01*
X432Y597D01*
X432Y595D01*
X430Y595D01*
X430Y593D01*
X428Y593D01*
X428Y591D01*
X424Y591D01*
X424Y583D01*
X990Y583D01*
X990Y585D01*
X984Y585D01*
X984Y587D01*
X980Y587D01*
X980Y589D01*
X976Y589D01*
X976Y591D01*
X972Y591D01*
X972Y593D01*
X970Y593D01*
X970Y595D01*
X968Y595D01*
X968Y597D01*
X966Y597D01*
X966Y599D01*
X964Y599D01*
X964Y601D01*
X962Y601D01*
X962Y603D01*
X960Y603D01*
X960Y607D01*
X958Y607D01*
X958Y611D01*
X956Y611D01*
X956Y617D01*
X954Y617D01*
X954Y625D01*
X952Y625D01*
X952Y635D01*
X954Y635D01*
X954Y643D01*
X956Y643D01*
X956Y649D01*
X958Y649D01*
X958Y653D01*
X960Y653D01*
X960Y657D01*
X962Y657D01*
X962Y659D01*
X964Y659D01*
X964Y661D01*
X966Y661D01*
X966Y663D01*
X968Y663D01*
X968Y665D01*
X970Y665D01*
X970Y667D01*
X972Y667D01*
X972Y669D01*
X976Y669D01*
X976Y691D01*
X972Y691D01*
X972Y693D01*
X970Y693D01*
X970Y695D01*
X968Y695D01*
X968Y697D01*
X966Y697D01*
X966Y699D01*
X964Y699D01*
X964Y701D01*
X962Y701D01*
X962Y703D01*
X960Y703D01*
X960Y707D01*
X958Y707D01*
X958Y711D01*
X956Y711D01*
X956Y717D01*
X954Y717D01*
X954Y725D01*
X952Y725D01*
X952Y735D01*
X954Y735D01*
X954Y743D01*
X956Y743D01*
X956Y749D01*
X958Y749D01*
X958Y753D01*
X960Y753D01*
X960Y757D01*
X962Y757D01*
X962Y759D01*
X964Y759D01*
X964Y761D01*
X966Y761D01*
X966Y763D01*
X968Y763D01*
X968Y765D01*
X970Y765D01*
X970Y767D01*
X972Y767D01*
X972Y769D01*
X976Y769D01*
X976Y791D01*
X972Y791D01*
X972Y793D01*
X970Y793D01*
X970Y795D01*
X968Y795D01*
X968Y797D01*
X966Y797D01*
X966Y799D01*
X964Y799D01*
X964Y801D01*
X962Y801D01*
X962Y803D01*
X960Y803D01*
X960Y807D01*
X958Y807D01*
X958Y811D01*
X956Y811D01*
X956Y817D01*
X954Y817D01*
X954Y825D01*
X952Y825D01*
X952Y835D01*
X954Y835D01*
X954Y843D01*
X956Y843D01*
X956Y849D01*
X958Y849D01*
X958Y853D01*
X960Y853D01*
X960Y857D01*
X962Y857D01*
X962Y859D01*
X964Y859D01*
X964Y861D01*
X966Y861D01*
X966Y863D01*
X968Y863D01*
X968Y865D01*
X970Y865D01*
X970Y867D01*
X972Y867D01*
X972Y869D01*
X976Y869D01*
X976Y891D01*
X972Y891D01*
X972Y893D01*
X970Y893D01*
X970Y895D01*
X968Y895D01*
X968Y897D01*
X966Y897D01*
X966Y899D01*
X964Y899D01*
X964Y901D01*
X962Y901D01*
X962Y903D01*
X960Y903D01*
X960Y907D01*
X958Y907D01*
X958Y911D01*
X956Y911D01*
X956Y917D01*
X954Y917D01*
X954Y925D01*
X952Y925D01*
X952Y935D01*
X954Y935D01*
X954Y943D01*
X956Y943D01*
X956Y949D01*
X958Y949D01*
X958Y953D01*
X960Y953D01*
X960Y957D01*
X962Y957D01*
X962Y959D01*
X964Y959D01*
X964Y961D01*
X966Y961D01*
X966Y963D01*
X968Y963D01*
X968Y965D01*
X970Y965D01*
X970Y967D01*
X972Y967D01*
X972Y969D01*
X976Y969D01*
X976Y991D01*
X972Y991D01*
X972Y993D01*
X970Y993D01*
X970Y995D01*
X968Y995D01*
X968Y997D01*
X966Y997D01*
X966Y999D01*
X964Y999D01*
X964Y1001D01*
X962Y1001D01*
X962Y1003D01*
X960Y1003D01*
X960Y1007D01*
X958Y1007D01*
X958Y1011D01*
X956Y1011D01*
X956Y1017D01*
X954Y1017D01*
X954Y1025D01*
X952Y1025D01*
X952Y1035D01*
X954Y1035D01*
X954Y1043D01*
X956Y1043D01*
X956Y1049D01*
X958Y1049D01*
X958Y1053D01*
X960Y1053D01*
X960Y1057D01*
X962Y1057D01*
X962Y1059D01*
X964Y1059D01*
X964Y1061D01*
X966Y1061D01*
X966Y1063D01*
X968Y1063D01*
X968Y1065D01*
X970Y1065D01*
X970Y1067D01*
X972Y1067D01*
X972Y1069D01*
X976Y1069D01*
X976Y1091D01*
X972Y1091D01*
X972Y1093D01*
X970Y1093D01*
X970Y1095D01*
X968Y1095D01*
X968Y1097D01*
X966Y1097D01*
X966Y1099D01*
X964Y1099D01*
X964Y1101D01*
X962Y1101D01*
X962Y1103D01*
X960Y1103D01*
X960Y1107D01*
X958Y1107D01*
X958Y1111D01*
X956Y1111D01*
X956Y1117D01*
X954Y1117D01*
X954Y1125D01*
X952Y1125D01*
X952Y1135D01*
X954Y1135D01*
X954Y1143D01*
X956Y1143D01*
X956Y1149D01*
X958Y1149D01*
X958Y1153D01*
X960Y1153D01*
X960Y1157D01*
X962Y1157D01*
X962Y1159D01*
X964Y1159D01*
X964Y1161D01*
X966Y1161D01*
X966Y1163D01*
X968Y1163D01*
X968Y1165D01*
X970Y1165D01*
X970Y1167D01*
X972Y1167D01*
X972Y1169D01*
X976Y1169D01*
X976Y1191D01*
X972Y1191D01*
X972Y1193D01*
X970Y1193D01*
X970Y1195D01*
X968Y1195D01*
X968Y1197D01*
X966Y1197D01*
X966Y1199D01*
X964Y1199D01*
X964Y1201D01*
X962Y1201D01*
X962Y1203D01*
X960Y1203D01*
X960Y1207D01*
X958Y1207D01*
X958Y1211D01*
X956Y1211D01*
X956Y1217D01*
X954Y1217D01*
X954Y1225D01*
X952Y1225D01*
X952Y1235D01*
X954Y1235D01*
X954Y1243D01*
X956Y1243D01*
X956Y1249D01*
X958Y1249D01*
X958Y1253D01*
X960Y1253D01*
X960Y1257D01*
X962Y1257D01*
X962Y1259D01*
X964Y1259D01*
X964Y1261D01*
X966Y1261D01*
X966Y1263D01*
X968Y1263D01*
X968Y1265D01*
X970Y1265D01*
X970Y1267D01*
X972Y1267D01*
X972Y1269D01*
X976Y1269D01*
X976Y1291D01*
X972Y1291D01*
X972Y1293D01*
X970Y1293D01*
X970Y1295D01*
X968Y1295D01*
X968Y1297D01*
X966Y1297D01*
X966Y1299D01*
X964Y1299D01*
X964Y1301D01*
X962Y1301D01*
X962Y1303D01*
X960Y1303D01*
X960Y1307D01*
X958Y1307D01*
X958Y1311D01*
X956Y1311D01*
X956Y1317D01*
X954Y1317D01*
X954Y1325D01*
X952Y1325D01*
X952Y1335D01*
X954Y1335D01*
X954Y1343D01*
X956Y1343D01*
X956Y1349D01*
X958Y1349D01*
X958Y1353D01*
X960Y1353D01*
X960Y1357D01*
X962Y1357D01*
X962Y1359D01*
X964Y1359D01*
X964Y1361D01*
X966Y1361D01*
X966Y1363D01*
X968Y1363D01*
X968Y1365D01*
X970Y1365D01*
X970Y1367D01*
X972Y1367D01*
X972Y1369D01*
X976Y1369D01*
X976Y1371D01*
X980Y1371D01*
X980Y1373D01*
X984Y1373D01*
X984Y1375D01*
X990Y1375D01*
X990Y1377D01*
X424Y1377D01*
G37*
D02*
G36*
X1032Y965D02*
X1032Y963D01*
X1034Y963D01*
X1034Y961D01*
X1036Y961D01*
X1036Y959D01*
X1038Y959D01*
X1038Y955D01*
X1040Y955D01*
X1040Y953D01*
X1042Y953D01*
X1042Y949D01*
X1044Y949D01*
X1044Y941D01*
X1046Y941D01*
X1046Y919D01*
X1044Y919D01*
X1044Y911D01*
X1042Y911D01*
X1042Y909D01*
X1040Y909D01*
X1040Y905D01*
X1038Y905D01*
X1038Y901D01*
X1036Y901D01*
X1036Y899D01*
X1034Y899D01*
X1034Y897D01*
X1032Y897D01*
X1032Y895D01*
X1030Y895D01*
X1030Y893D01*
X1028Y893D01*
X1028Y891D01*
X1024Y891D01*
X1024Y869D01*
X1028Y869D01*
X1028Y867D01*
X1030Y867D01*
X1030Y865D01*
X1032Y865D01*
X1032Y863D01*
X1034Y863D01*
X1034Y861D01*
X1036Y861D01*
X1036Y859D01*
X1038Y859D01*
X1038Y855D01*
X1040Y855D01*
X1040Y853D01*
X1042Y853D01*
X1042Y849D01*
X2026Y849D01*
X2026Y851D01*
X2020Y851D01*
X2020Y853D01*
X2016Y853D01*
X2016Y855D01*
X2012Y855D01*
X2012Y857D01*
X2008Y857D01*
X2008Y859D01*
X2006Y859D01*
X2006Y861D01*
X2004Y861D01*
X2004Y863D01*
X2000Y863D01*
X2000Y865D01*
X1998Y865D01*
X1998Y869D01*
X1996Y869D01*
X1996Y871D01*
X1994Y871D01*
X1994Y873D01*
X1992Y873D01*
X1992Y877D01*
X1990Y877D01*
X1990Y879D01*
X1988Y879D01*
X1988Y885D01*
X1986Y885D01*
X1986Y891D01*
X1984Y891D01*
X1984Y901D01*
X1982Y901D01*
X1982Y911D01*
X1984Y911D01*
X1984Y921D01*
X1986Y921D01*
X1986Y929D01*
X1988Y929D01*
X1988Y933D01*
X1990Y933D01*
X1990Y935D01*
X1992Y935D01*
X1992Y939D01*
X1994Y939D01*
X1994Y941D01*
X1996Y941D01*
X1996Y943D01*
X1998Y943D01*
X1998Y947D01*
X2000Y947D01*
X2000Y949D01*
X2004Y949D01*
X2004Y951D01*
X2006Y951D01*
X2006Y953D01*
X2008Y953D01*
X2008Y955D01*
X2012Y955D01*
X2012Y957D01*
X2014Y957D01*
X2014Y959D01*
X2020Y959D01*
X2020Y961D01*
X2026Y961D01*
X2026Y963D01*
X2038Y963D01*
X2038Y965D01*
X1032Y965D01*
G37*
D02*
G36*
X2044Y965D02*
X2044Y963D01*
X2056Y963D01*
X2056Y961D01*
X2062Y961D01*
X2062Y959D01*
X2066Y959D01*
X2066Y957D01*
X2070Y957D01*
X2070Y955D01*
X2074Y955D01*
X2074Y953D01*
X2076Y953D01*
X2076Y951D01*
X2078Y951D01*
X2078Y949D01*
X2080Y949D01*
X2080Y947D01*
X2082Y947D01*
X2082Y945D01*
X2084Y945D01*
X2084Y943D01*
X2086Y943D01*
X2086Y941D01*
X2088Y941D01*
X2088Y939D01*
X2090Y939D01*
X2090Y935D01*
X2092Y935D01*
X2092Y931D01*
X2094Y931D01*
X2094Y927D01*
X2096Y927D01*
X2096Y919D01*
X2098Y919D01*
X2098Y893D01*
X2096Y893D01*
X2096Y885D01*
X2094Y885D01*
X2094Y881D01*
X2092Y881D01*
X2092Y877D01*
X2090Y877D01*
X2090Y875D01*
X2088Y875D01*
X2088Y871D01*
X2086Y871D01*
X2086Y869D01*
X2084Y869D01*
X2084Y867D01*
X2082Y867D01*
X2082Y865D01*
X2080Y865D01*
X2080Y863D01*
X2078Y863D01*
X2078Y861D01*
X2076Y861D01*
X2076Y859D01*
X2072Y859D01*
X2072Y857D01*
X2070Y857D01*
X2070Y855D01*
X2066Y855D01*
X2066Y853D01*
X2062Y853D01*
X2062Y851D01*
X2056Y851D01*
X2056Y849D01*
X3014Y849D01*
X3014Y851D01*
X3008Y851D01*
X3008Y853D01*
X3002Y853D01*
X3002Y855D01*
X3000Y855D01*
X3000Y857D01*
X2996Y857D01*
X2996Y859D01*
X2994Y859D01*
X2994Y861D01*
X2990Y861D01*
X2990Y863D01*
X2988Y863D01*
X2988Y865D01*
X2986Y865D01*
X2986Y867D01*
X2984Y867D01*
X2984Y869D01*
X2982Y869D01*
X2982Y873D01*
X2980Y873D01*
X2980Y875D01*
X2978Y875D01*
X2978Y879D01*
X2976Y879D01*
X2976Y881D01*
X2974Y881D01*
X2974Y887D01*
X2972Y887D01*
X2972Y893D01*
X2970Y893D01*
X2970Y919D01*
X2972Y919D01*
X2972Y927D01*
X2974Y927D01*
X2974Y931D01*
X2976Y931D01*
X2976Y935D01*
X2978Y935D01*
X2978Y939D01*
X2980Y939D01*
X2980Y941D01*
X2982Y941D01*
X2982Y943D01*
X2984Y943D01*
X2984Y945D01*
X2986Y945D01*
X2986Y949D01*
X2990Y949D01*
X2990Y951D01*
X2992Y951D01*
X2992Y953D01*
X2994Y953D01*
X2994Y955D01*
X2998Y955D01*
X2998Y957D01*
X3000Y957D01*
X3000Y959D01*
X3004Y959D01*
X3004Y961D01*
X3010Y961D01*
X3010Y963D01*
X3020Y963D01*
X3020Y965D01*
X2044Y965D01*
G37*
D02*
G36*
X1044Y849D02*
X1044Y847D01*
X3578Y847D01*
X3578Y849D01*
X1044Y849D01*
G37*
D02*
G36*
X1044Y849D02*
X1044Y847D01*
X3578Y847D01*
X3578Y849D01*
X1044Y849D01*
G37*
D02*
G36*
X1044Y849D02*
X1044Y847D01*
X3578Y847D01*
X3578Y849D01*
X1044Y849D01*
G37*
D02*
G36*
X1044Y847D02*
X1044Y841D01*
X1046Y841D01*
X1046Y819D01*
X1044Y819D01*
X1044Y811D01*
X1042Y811D01*
X1042Y809D01*
X1040Y809D01*
X1040Y805D01*
X1038Y805D01*
X1038Y801D01*
X1036Y801D01*
X1036Y799D01*
X1034Y799D01*
X1034Y797D01*
X1032Y797D01*
X1032Y795D01*
X1030Y795D01*
X1030Y793D01*
X1028Y793D01*
X1028Y791D01*
X1024Y791D01*
X1024Y769D01*
X1028Y769D01*
X1028Y767D01*
X1030Y767D01*
X1030Y765D01*
X1032Y765D01*
X1032Y763D01*
X1034Y763D01*
X1034Y761D01*
X1036Y761D01*
X1036Y759D01*
X1038Y759D01*
X1038Y755D01*
X1040Y755D01*
X1040Y753D01*
X1042Y753D01*
X1042Y749D01*
X1044Y749D01*
X1044Y741D01*
X1046Y741D01*
X1046Y719D01*
X1044Y719D01*
X1044Y711D01*
X1042Y711D01*
X1042Y709D01*
X1040Y709D01*
X1040Y705D01*
X1038Y705D01*
X1038Y701D01*
X1036Y701D01*
X1036Y699D01*
X1034Y699D01*
X1034Y697D01*
X1032Y697D01*
X1032Y695D01*
X1030Y695D01*
X1030Y693D01*
X1028Y693D01*
X1028Y691D01*
X1024Y691D01*
X1024Y669D01*
X1028Y669D01*
X1028Y667D01*
X1030Y667D01*
X1030Y665D01*
X1032Y665D01*
X1032Y663D01*
X1034Y663D01*
X1034Y661D01*
X1036Y661D01*
X1036Y659D01*
X1038Y659D01*
X1038Y655D01*
X1040Y655D01*
X1040Y653D01*
X1042Y653D01*
X1042Y649D01*
X1044Y649D01*
X1044Y641D01*
X1046Y641D01*
X1046Y619D01*
X1044Y619D01*
X1044Y611D01*
X1042Y611D01*
X1042Y609D01*
X1040Y609D01*
X1040Y605D01*
X1038Y605D01*
X1038Y601D01*
X1036Y601D01*
X1036Y599D01*
X1034Y599D01*
X1034Y597D01*
X1032Y597D01*
X1032Y595D01*
X1030Y595D01*
X1030Y593D01*
X1028Y593D01*
X1028Y591D01*
X1024Y591D01*
X1024Y589D01*
X1020Y589D01*
X1020Y587D01*
X1016Y587D01*
X1016Y585D01*
X1008Y585D01*
X1008Y583D01*
X3578Y583D01*
X3578Y847D01*
X1044Y847D01*
G37*
D02*
G36*
X424Y583D02*
X424Y581D01*
X3578Y581D01*
X3578Y583D01*
X424Y583D01*
G37*
D02*
G36*
X424Y583D02*
X424Y581D01*
X3578Y581D01*
X3578Y583D01*
X424Y583D01*
G37*
D02*
G36*
X424Y581D02*
X424Y569D01*
X428Y569D01*
X428Y567D01*
X430Y567D01*
X430Y565D01*
X432Y565D01*
X432Y563D01*
X434Y563D01*
X434Y561D01*
X436Y561D01*
X436Y559D01*
X438Y559D01*
X438Y555D01*
X440Y555D01*
X440Y553D01*
X442Y553D01*
X442Y549D01*
X444Y549D01*
X444Y541D01*
X446Y541D01*
X446Y519D01*
X444Y519D01*
X444Y511D01*
X442Y511D01*
X442Y509D01*
X440Y509D01*
X440Y505D01*
X438Y505D01*
X438Y501D01*
X436Y501D01*
X436Y499D01*
X434Y499D01*
X434Y497D01*
X432Y497D01*
X432Y495D01*
X430Y495D01*
X430Y493D01*
X428Y493D01*
X428Y491D01*
X424Y491D01*
X424Y469D01*
X428Y469D01*
X428Y467D01*
X430Y467D01*
X430Y465D01*
X432Y465D01*
X432Y463D01*
X434Y463D01*
X434Y461D01*
X436Y461D01*
X436Y459D01*
X438Y459D01*
X438Y455D01*
X440Y455D01*
X440Y453D01*
X442Y453D01*
X442Y449D01*
X444Y449D01*
X444Y441D01*
X446Y441D01*
X446Y419D01*
X444Y419D01*
X444Y411D01*
X442Y411D01*
X442Y409D01*
X440Y409D01*
X440Y405D01*
X438Y405D01*
X438Y401D01*
X436Y401D01*
X436Y399D01*
X434Y399D01*
X434Y397D01*
X432Y397D01*
X432Y395D01*
X430Y395D01*
X430Y393D01*
X428Y393D01*
X428Y391D01*
X424Y391D01*
X424Y369D01*
X428Y369D01*
X428Y367D01*
X430Y367D01*
X430Y365D01*
X432Y365D01*
X432Y363D01*
X434Y363D01*
X434Y361D01*
X436Y361D01*
X436Y359D01*
X438Y359D01*
X438Y355D01*
X440Y355D01*
X440Y353D01*
X442Y353D01*
X442Y349D01*
X444Y349D01*
X444Y341D01*
X446Y341D01*
X446Y319D01*
X444Y319D01*
X444Y311D01*
X442Y311D01*
X442Y309D01*
X440Y309D01*
X440Y305D01*
X438Y305D01*
X438Y301D01*
X436Y301D01*
X436Y299D01*
X434Y299D01*
X434Y297D01*
X432Y297D01*
X432Y295D01*
X430Y295D01*
X430Y293D01*
X428Y293D01*
X428Y291D01*
X424Y291D01*
X424Y269D01*
X428Y269D01*
X428Y267D01*
X430Y267D01*
X430Y265D01*
X432Y265D01*
X432Y263D01*
X434Y263D01*
X434Y261D01*
X436Y261D01*
X436Y259D01*
X438Y259D01*
X438Y255D01*
X440Y255D01*
X440Y253D01*
X442Y253D01*
X442Y249D01*
X444Y249D01*
X444Y241D01*
X446Y241D01*
X446Y235D01*
X3260Y235D01*
X3260Y233D01*
X3268Y233D01*
X3268Y231D01*
X3270Y231D01*
X3270Y229D01*
X3274Y229D01*
X3274Y227D01*
X3276Y227D01*
X3276Y225D01*
X3280Y225D01*
X3280Y223D01*
X3282Y223D01*
X3282Y221D01*
X3284Y221D01*
X3284Y217D01*
X3286Y217D01*
X3286Y215D01*
X3288Y215D01*
X3288Y211D01*
X3290Y211D01*
X3290Y209D01*
X3292Y209D01*
X3292Y201D01*
X3294Y201D01*
X3294Y189D01*
X3494Y189D01*
X3494Y187D01*
X3502Y187D01*
X3502Y185D01*
X3508Y185D01*
X3508Y183D01*
X3512Y183D01*
X3512Y181D01*
X3516Y181D01*
X3516Y179D01*
X3518Y179D01*
X3518Y177D01*
X3520Y177D01*
X3520Y175D01*
X3524Y175D01*
X3524Y173D01*
X3526Y173D01*
X3526Y169D01*
X3528Y169D01*
X3528Y167D01*
X3530Y167D01*
X3530Y165D01*
X3532Y165D01*
X3532Y161D01*
X3534Y161D01*
X3534Y157D01*
X3536Y157D01*
X3536Y153D01*
X3538Y153D01*
X3538Y145D01*
X3540Y145D01*
X3540Y125D01*
X3538Y125D01*
X3538Y119D01*
X3536Y119D01*
X3536Y113D01*
X3534Y113D01*
X3534Y109D01*
X3532Y109D01*
X3532Y105D01*
X3530Y105D01*
X3530Y103D01*
X3528Y103D01*
X3528Y101D01*
X3526Y101D01*
X3526Y99D01*
X3524Y99D01*
X3524Y97D01*
X3522Y97D01*
X3522Y95D01*
X3520Y95D01*
X3520Y93D01*
X3518Y93D01*
X3518Y91D01*
X3514Y91D01*
X3514Y89D01*
X3510Y89D01*
X3510Y87D01*
X3506Y87D01*
X3506Y85D01*
X3500Y85D01*
X3500Y83D01*
X3578Y83D01*
X3578Y581D01*
X424Y581D01*
G37*
D02*
G36*
X446Y235D02*
X446Y219D01*
X444Y219D01*
X444Y211D01*
X442Y211D01*
X442Y209D01*
X440Y209D01*
X440Y205D01*
X438Y205D01*
X438Y201D01*
X436Y201D01*
X436Y199D01*
X434Y199D01*
X434Y197D01*
X432Y197D01*
X432Y195D01*
X430Y195D01*
X430Y193D01*
X428Y193D01*
X428Y191D01*
X424Y191D01*
X424Y189D01*
X420Y189D01*
X420Y187D01*
X416Y187D01*
X416Y185D01*
X408Y185D01*
X408Y183D01*
X1774Y183D01*
X1774Y201D01*
X1776Y201D01*
X1776Y207D01*
X1778Y207D01*
X1778Y211D01*
X1780Y211D01*
X1780Y215D01*
X1782Y215D01*
X1782Y217D01*
X1784Y217D01*
X1784Y219D01*
X1786Y219D01*
X1786Y223D01*
X1790Y223D01*
X1790Y225D01*
X1792Y225D01*
X1792Y227D01*
X1794Y227D01*
X1794Y229D01*
X1798Y229D01*
X1798Y231D01*
X1802Y231D01*
X1802Y233D01*
X1808Y233D01*
X1808Y235D01*
X446Y235D01*
G37*
D02*
G36*
X1830Y235D02*
X1830Y233D01*
X1836Y233D01*
X1836Y231D01*
X1840Y231D01*
X1840Y229D01*
X1844Y229D01*
X1844Y227D01*
X1846Y227D01*
X1846Y225D01*
X1850Y225D01*
X1850Y223D01*
X1852Y223D01*
X1852Y221D01*
X1854Y221D01*
X1854Y217D01*
X1856Y217D01*
X1856Y215D01*
X1858Y215D01*
X1858Y211D01*
X1860Y211D01*
X1860Y209D01*
X1862Y209D01*
X1862Y203D01*
X1864Y203D01*
X1864Y191D01*
X1866Y191D01*
X1866Y189D01*
X1864Y189D01*
X1864Y177D01*
X1862Y177D01*
X1862Y171D01*
X1860Y171D01*
X1860Y167D01*
X1858Y167D01*
X1858Y163D01*
X1856Y163D01*
X1856Y161D01*
X1854Y161D01*
X1854Y159D01*
X1852Y159D01*
X1852Y157D01*
X1850Y157D01*
X1850Y155D01*
X1848Y155D01*
X1848Y153D01*
X1846Y153D01*
X1846Y151D01*
X1842Y151D01*
X1842Y149D01*
X1838Y149D01*
X1838Y147D01*
X1832Y147D01*
X1832Y145D01*
X1824Y145D01*
X1824Y143D01*
X1962Y143D01*
X1962Y145D01*
X1954Y145D01*
X1954Y147D01*
X1948Y147D01*
X1948Y149D01*
X1944Y149D01*
X1944Y151D01*
X1940Y151D01*
X1940Y153D01*
X1938Y153D01*
X1938Y155D01*
X1936Y155D01*
X1936Y157D01*
X1934Y157D01*
X1934Y159D01*
X1932Y159D01*
X1932Y161D01*
X1930Y161D01*
X1930Y165D01*
X1928Y165D01*
X1928Y167D01*
X1926Y167D01*
X1926Y171D01*
X1924Y171D01*
X1924Y177D01*
X1922Y177D01*
X1922Y201D01*
X1924Y201D01*
X1924Y207D01*
X1926Y207D01*
X1926Y211D01*
X1928Y211D01*
X1928Y215D01*
X1930Y215D01*
X1930Y217D01*
X1932Y217D01*
X1932Y221D01*
X1934Y221D01*
X1934Y223D01*
X1936Y223D01*
X1936Y225D01*
X1940Y225D01*
X1940Y227D01*
X1942Y227D01*
X1942Y229D01*
X1946Y229D01*
X1946Y231D01*
X1950Y231D01*
X1950Y233D01*
X1956Y233D01*
X1956Y235D01*
X1830Y235D01*
G37*
D02*
G36*
X1978Y235D02*
X1978Y233D01*
X1984Y233D01*
X1984Y231D01*
X1988Y231D01*
X1988Y229D01*
X1992Y229D01*
X1992Y227D01*
X1994Y227D01*
X1994Y225D01*
X1996Y225D01*
X1996Y223D01*
X2000Y223D01*
X2000Y219D01*
X2002Y219D01*
X2002Y217D01*
X2004Y217D01*
X2004Y215D01*
X2006Y215D01*
X2006Y211D01*
X2008Y211D01*
X2008Y207D01*
X2010Y207D01*
X2010Y201D01*
X2012Y201D01*
X2012Y179D01*
X2010Y179D01*
X2010Y171D01*
X2008Y171D01*
X2008Y167D01*
X2006Y167D01*
X2006Y165D01*
X2004Y165D01*
X2004Y161D01*
X2002Y161D01*
X2002Y159D01*
X2000Y159D01*
X2000Y157D01*
X1998Y157D01*
X1998Y155D01*
X1996Y155D01*
X1996Y153D01*
X1992Y153D01*
X1992Y151D01*
X1990Y151D01*
X1990Y149D01*
X1986Y149D01*
X1986Y147D01*
X1980Y147D01*
X1980Y145D01*
X1972Y145D01*
X1972Y143D01*
X2110Y143D01*
X2110Y145D01*
X2102Y145D01*
X2102Y147D01*
X2096Y147D01*
X2096Y149D01*
X2092Y149D01*
X2092Y151D01*
X2088Y151D01*
X2088Y153D01*
X2086Y153D01*
X2086Y155D01*
X2084Y155D01*
X2084Y157D01*
X2082Y157D01*
X2082Y159D01*
X2080Y159D01*
X2080Y161D01*
X2078Y161D01*
X2078Y163D01*
X2076Y163D01*
X2076Y167D01*
X2074Y167D01*
X2074Y171D01*
X2072Y171D01*
X2072Y177D01*
X2070Y177D01*
X2070Y185D01*
X2068Y185D01*
X2068Y195D01*
X2070Y195D01*
X2070Y203D01*
X2072Y203D01*
X2072Y209D01*
X2074Y209D01*
X2074Y213D01*
X2076Y213D01*
X2076Y215D01*
X2078Y215D01*
X2078Y219D01*
X2080Y219D01*
X2080Y221D01*
X2082Y221D01*
X2082Y223D01*
X2084Y223D01*
X2084Y225D01*
X2088Y225D01*
X2088Y227D01*
X2090Y227D01*
X2090Y229D01*
X2094Y229D01*
X2094Y231D01*
X2098Y231D01*
X2098Y233D01*
X2104Y233D01*
X2104Y235D01*
X1978Y235D01*
G37*
D02*
G36*
X2126Y235D02*
X2126Y233D01*
X2132Y233D01*
X2132Y231D01*
X2136Y231D01*
X2136Y229D01*
X2140Y229D01*
X2140Y227D01*
X2142Y227D01*
X2142Y225D01*
X2144Y225D01*
X2144Y223D01*
X2146Y223D01*
X2146Y221D01*
X2148Y221D01*
X2148Y219D01*
X2150Y219D01*
X2150Y217D01*
X2152Y217D01*
X2152Y215D01*
X2154Y215D01*
X2154Y211D01*
X2156Y211D01*
X2156Y207D01*
X2158Y207D01*
X2158Y199D01*
X2160Y199D01*
X2160Y179D01*
X2158Y179D01*
X2158Y173D01*
X2156Y173D01*
X2156Y169D01*
X2154Y169D01*
X2154Y165D01*
X2152Y165D01*
X2152Y163D01*
X2150Y163D01*
X2150Y159D01*
X2148Y159D01*
X2148Y157D01*
X2146Y157D01*
X2146Y155D01*
X2144Y155D01*
X2144Y153D01*
X2140Y153D01*
X2140Y151D01*
X2138Y151D01*
X2138Y149D01*
X2134Y149D01*
X2134Y147D01*
X2128Y147D01*
X2128Y145D01*
X2118Y145D01*
X2118Y143D01*
X2258Y143D01*
X2258Y145D01*
X2248Y145D01*
X2248Y147D01*
X2244Y147D01*
X2244Y149D01*
X2240Y149D01*
X2240Y151D01*
X2236Y151D01*
X2236Y153D01*
X2234Y153D01*
X2234Y155D01*
X2232Y155D01*
X2232Y157D01*
X2230Y157D01*
X2230Y159D01*
X2228Y159D01*
X2228Y161D01*
X2226Y161D01*
X2226Y163D01*
X2224Y163D01*
X2224Y167D01*
X2222Y167D01*
X2222Y169D01*
X2220Y169D01*
X2220Y175D01*
X2218Y175D01*
X2218Y183D01*
X2216Y183D01*
X2216Y197D01*
X2218Y197D01*
X2218Y205D01*
X2220Y205D01*
X2220Y209D01*
X2222Y209D01*
X2222Y213D01*
X2224Y213D01*
X2224Y217D01*
X2226Y217D01*
X2226Y219D01*
X2228Y219D01*
X2228Y221D01*
X2230Y221D01*
X2230Y223D01*
X2232Y223D01*
X2232Y225D01*
X2234Y225D01*
X2234Y227D01*
X2238Y227D01*
X2238Y229D01*
X2242Y229D01*
X2242Y231D01*
X2246Y231D01*
X2246Y233D01*
X2252Y233D01*
X2252Y235D01*
X2126Y235D01*
G37*
D02*
G36*
X2272Y235D02*
X2272Y233D01*
X2280Y233D01*
X2280Y231D01*
X2284Y231D01*
X2284Y229D01*
X2286Y229D01*
X2286Y227D01*
X2290Y227D01*
X2290Y225D01*
X2292Y225D01*
X2292Y223D01*
X2294Y223D01*
X2294Y221D01*
X2296Y221D01*
X2296Y219D01*
X2298Y219D01*
X2298Y217D01*
X2300Y217D01*
X2300Y213D01*
X2302Y213D01*
X2302Y209D01*
X2304Y209D01*
X2304Y205D01*
X2306Y205D01*
X2306Y199D01*
X2308Y199D01*
X2308Y181D01*
X2306Y181D01*
X2306Y173D01*
X2304Y173D01*
X2304Y169D01*
X2302Y169D01*
X2302Y165D01*
X2300Y165D01*
X2300Y163D01*
X2298Y163D01*
X2298Y161D01*
X2296Y161D01*
X2296Y157D01*
X2294Y157D01*
X2294Y155D01*
X2290Y155D01*
X2290Y153D01*
X2288Y153D01*
X2288Y151D01*
X2284Y151D01*
X2284Y149D01*
X2282Y149D01*
X2282Y147D01*
X2276Y147D01*
X2276Y145D01*
X2794Y145D01*
X2794Y147D01*
X2788Y147D01*
X2788Y149D01*
X2784Y149D01*
X2784Y151D01*
X2780Y151D01*
X2780Y153D01*
X2778Y153D01*
X2778Y155D01*
X2776Y155D01*
X2776Y157D01*
X2774Y157D01*
X2774Y159D01*
X2772Y159D01*
X2772Y161D01*
X2770Y161D01*
X2770Y163D01*
X2768Y163D01*
X2768Y167D01*
X2766Y167D01*
X2766Y169D01*
X2764Y169D01*
X2764Y175D01*
X2762Y175D01*
X2762Y183D01*
X2760Y183D01*
X2760Y197D01*
X2762Y197D01*
X2762Y205D01*
X2764Y205D01*
X2764Y209D01*
X2766Y209D01*
X2766Y213D01*
X2768Y213D01*
X2768Y217D01*
X2770Y217D01*
X2770Y219D01*
X2772Y219D01*
X2772Y221D01*
X2774Y221D01*
X2774Y223D01*
X2776Y223D01*
X2776Y225D01*
X2778Y225D01*
X2778Y227D01*
X2780Y227D01*
X2780Y229D01*
X2784Y229D01*
X2784Y231D01*
X2788Y231D01*
X2788Y233D01*
X2794Y233D01*
X2794Y235D01*
X2272Y235D01*
G37*
D02*
G36*
X2818Y235D02*
X2818Y233D01*
X2824Y233D01*
X2824Y231D01*
X2828Y231D01*
X2828Y229D01*
X2832Y229D01*
X2832Y227D01*
X2834Y227D01*
X2834Y225D01*
X2836Y225D01*
X2836Y223D01*
X2838Y223D01*
X2838Y221D01*
X2840Y221D01*
X2840Y219D01*
X2842Y219D01*
X2842Y217D01*
X2844Y217D01*
X2844Y213D01*
X2846Y213D01*
X2846Y211D01*
X2848Y211D01*
X2848Y205D01*
X2850Y205D01*
X2850Y199D01*
X2852Y199D01*
X2852Y181D01*
X2850Y181D01*
X2850Y175D01*
X2848Y175D01*
X2848Y169D01*
X2846Y169D01*
X2846Y167D01*
X2844Y167D01*
X2844Y163D01*
X2842Y163D01*
X2842Y161D01*
X2840Y161D01*
X2840Y159D01*
X2838Y159D01*
X2838Y157D01*
X2836Y157D01*
X2836Y155D01*
X2834Y155D01*
X2834Y153D01*
X2832Y153D01*
X2832Y151D01*
X2828Y151D01*
X2828Y149D01*
X2824Y149D01*
X2824Y147D01*
X2818Y147D01*
X2818Y145D01*
X2942Y145D01*
X2942Y147D01*
X2936Y147D01*
X2936Y149D01*
X2932Y149D01*
X2932Y151D01*
X2928Y151D01*
X2928Y153D01*
X2926Y153D01*
X2926Y155D01*
X2924Y155D01*
X2924Y157D01*
X2920Y157D01*
X2920Y161D01*
X2918Y161D01*
X2918Y163D01*
X2916Y163D01*
X2916Y165D01*
X2914Y165D01*
X2914Y169D01*
X2912Y169D01*
X2912Y173D01*
X2910Y173D01*
X2910Y181D01*
X2908Y181D01*
X2908Y199D01*
X2910Y199D01*
X2910Y207D01*
X2912Y207D01*
X2912Y211D01*
X2914Y211D01*
X2914Y215D01*
X2916Y215D01*
X2916Y217D01*
X2918Y217D01*
X2918Y219D01*
X2920Y219D01*
X2920Y223D01*
X2924Y223D01*
X2924Y225D01*
X2926Y225D01*
X2926Y227D01*
X2928Y227D01*
X2928Y229D01*
X2932Y229D01*
X2932Y231D01*
X2936Y231D01*
X2936Y233D01*
X2942Y233D01*
X2942Y235D01*
X2818Y235D01*
G37*
D02*
G36*
X2966Y235D02*
X2966Y233D01*
X2972Y233D01*
X2972Y231D01*
X2976Y231D01*
X2976Y229D01*
X2980Y229D01*
X2980Y227D01*
X2982Y227D01*
X2982Y225D01*
X2984Y225D01*
X2984Y223D01*
X2986Y223D01*
X2986Y221D01*
X2988Y221D01*
X2988Y219D01*
X2990Y219D01*
X2990Y217D01*
X2992Y217D01*
X2992Y213D01*
X2994Y213D01*
X2994Y209D01*
X2996Y209D01*
X2996Y205D01*
X2998Y205D01*
X2998Y195D01*
X3000Y195D01*
X3000Y185D01*
X2998Y185D01*
X2998Y175D01*
X2996Y175D01*
X2996Y171D01*
X2994Y171D01*
X2994Y167D01*
X2992Y167D01*
X2992Y163D01*
X2990Y163D01*
X2990Y161D01*
X2988Y161D01*
X2988Y159D01*
X2986Y159D01*
X2986Y157D01*
X2984Y157D01*
X2984Y155D01*
X2982Y155D01*
X2982Y153D01*
X2980Y153D01*
X2980Y151D01*
X2976Y151D01*
X2976Y149D01*
X2972Y149D01*
X2972Y147D01*
X2966Y147D01*
X2966Y145D01*
X3090Y145D01*
X3090Y147D01*
X3084Y147D01*
X3084Y149D01*
X3080Y149D01*
X3080Y151D01*
X3076Y151D01*
X3076Y153D01*
X3074Y153D01*
X3074Y155D01*
X3070Y155D01*
X3070Y157D01*
X3068Y157D01*
X3068Y159D01*
X3066Y159D01*
X3066Y163D01*
X3064Y163D01*
X3064Y165D01*
X3062Y165D01*
X3062Y169D01*
X3060Y169D01*
X3060Y173D01*
X3058Y173D01*
X3058Y179D01*
X3056Y179D01*
X3056Y201D01*
X3058Y201D01*
X3058Y207D01*
X3060Y207D01*
X3060Y211D01*
X3062Y211D01*
X3062Y215D01*
X3064Y215D01*
X3064Y217D01*
X3066Y217D01*
X3066Y221D01*
X3068Y221D01*
X3068Y223D01*
X3070Y223D01*
X3070Y225D01*
X3074Y225D01*
X3074Y227D01*
X3076Y227D01*
X3076Y229D01*
X3080Y229D01*
X3080Y231D01*
X3084Y231D01*
X3084Y233D01*
X3090Y233D01*
X3090Y235D01*
X2966Y235D01*
G37*
D02*
G36*
X3114Y235D02*
X3114Y233D01*
X3120Y233D01*
X3120Y231D01*
X3124Y231D01*
X3124Y229D01*
X3126Y229D01*
X3126Y227D01*
X3130Y227D01*
X3130Y225D01*
X3132Y225D01*
X3132Y223D01*
X3134Y223D01*
X3134Y221D01*
X3136Y221D01*
X3136Y219D01*
X3138Y219D01*
X3138Y215D01*
X3140Y215D01*
X3140Y213D01*
X3142Y213D01*
X3142Y209D01*
X3144Y209D01*
X3144Y203D01*
X3146Y203D01*
X3146Y191D01*
X3148Y191D01*
X3148Y187D01*
X3146Y187D01*
X3146Y177D01*
X3144Y177D01*
X3144Y171D01*
X3142Y171D01*
X3142Y167D01*
X3140Y167D01*
X3140Y165D01*
X3138Y165D01*
X3138Y161D01*
X3136Y161D01*
X3136Y159D01*
X3134Y159D01*
X3134Y157D01*
X3132Y157D01*
X3132Y155D01*
X3130Y155D01*
X3130Y153D01*
X3126Y153D01*
X3126Y151D01*
X3124Y151D01*
X3124Y149D01*
X3120Y149D01*
X3120Y147D01*
X3114Y147D01*
X3114Y145D01*
X3236Y145D01*
X3236Y147D01*
X3230Y147D01*
X3230Y149D01*
X3228Y149D01*
X3228Y151D01*
X3224Y151D01*
X3224Y153D01*
X3220Y153D01*
X3220Y155D01*
X3218Y155D01*
X3218Y157D01*
X3216Y157D01*
X3216Y159D01*
X3214Y159D01*
X3214Y161D01*
X3212Y161D01*
X3212Y165D01*
X3210Y165D01*
X3210Y169D01*
X3208Y169D01*
X3208Y171D01*
X3206Y171D01*
X3206Y177D01*
X3204Y177D01*
X3204Y203D01*
X3206Y203D01*
X3206Y209D01*
X3208Y209D01*
X3208Y211D01*
X3210Y211D01*
X3210Y215D01*
X3212Y215D01*
X3212Y219D01*
X3214Y219D01*
X3214Y221D01*
X3216Y221D01*
X3216Y223D01*
X3218Y223D01*
X3218Y225D01*
X3220Y225D01*
X3220Y227D01*
X3224Y227D01*
X3224Y229D01*
X3228Y229D01*
X3228Y231D01*
X3230Y231D01*
X3230Y233D01*
X3238Y233D01*
X3238Y235D01*
X3114Y235D01*
G37*
D02*
G36*
X40Y195D02*
X40Y87D01*
X122Y87D01*
X122Y89D01*
X114Y89D01*
X114Y91D01*
X108Y91D01*
X108Y93D01*
X104Y93D01*
X104Y95D01*
X100Y95D01*
X100Y97D01*
X98Y97D01*
X98Y99D01*
X96Y99D01*
X96Y101D01*
X94Y101D01*
X94Y103D01*
X90Y103D01*
X90Y107D01*
X88Y107D01*
X88Y109D01*
X86Y109D01*
X86Y111D01*
X84Y111D01*
X84Y115D01*
X82Y115D01*
X82Y119D01*
X80Y119D01*
X80Y125D01*
X78Y125D01*
X78Y131D01*
X76Y131D01*
X76Y149D01*
X78Y149D01*
X78Y157D01*
X80Y157D01*
X80Y163D01*
X82Y163D01*
X82Y167D01*
X84Y167D01*
X84Y169D01*
X86Y169D01*
X86Y173D01*
X88Y173D01*
X88Y175D01*
X90Y175D01*
X90Y177D01*
X92Y177D01*
X92Y179D01*
X94Y179D01*
X94Y181D01*
X96Y181D01*
X96Y183D01*
X98Y183D01*
X98Y185D01*
X102Y185D01*
X102Y187D01*
X106Y187D01*
X106Y189D01*
X110Y189D01*
X110Y191D01*
X116Y191D01*
X116Y193D01*
X128Y193D01*
X128Y195D01*
X40Y195D01*
G37*
D02*
G36*
X3294Y189D02*
X3294Y179D01*
X3292Y179D01*
X3292Y171D01*
X3290Y171D01*
X3290Y169D01*
X3288Y169D01*
X3288Y165D01*
X3286Y165D01*
X3286Y163D01*
X3284Y163D01*
X3284Y159D01*
X3282Y159D01*
X3282Y157D01*
X3280Y157D01*
X3280Y155D01*
X3276Y155D01*
X3276Y153D01*
X3274Y153D01*
X3274Y151D01*
X3270Y151D01*
X3270Y149D01*
X3268Y149D01*
X3268Y147D01*
X3260Y147D01*
X3260Y145D01*
X3434Y145D01*
X3434Y147D01*
X3436Y147D01*
X3436Y153D01*
X3438Y153D01*
X3438Y159D01*
X3440Y159D01*
X3440Y163D01*
X3442Y163D01*
X3442Y165D01*
X3444Y165D01*
X3444Y169D01*
X3446Y169D01*
X3446Y171D01*
X3448Y171D01*
X3448Y173D01*
X3450Y173D01*
X3450Y175D01*
X3452Y175D01*
X3452Y177D01*
X3456Y177D01*
X3456Y179D01*
X3458Y179D01*
X3458Y181D01*
X3462Y181D01*
X3462Y183D01*
X3466Y183D01*
X3466Y185D01*
X3470Y185D01*
X3470Y187D01*
X3480Y187D01*
X3480Y189D01*
X3294Y189D01*
G37*
D02*
G36*
X162Y183D02*
X162Y181D01*
X1774Y181D01*
X1774Y183D01*
X162Y183D01*
G37*
D02*
G36*
X162Y183D02*
X162Y181D01*
X1774Y181D01*
X1774Y183D01*
X162Y183D01*
G37*
D02*
G36*
X166Y181D02*
X166Y179D01*
X168Y179D01*
X168Y177D01*
X170Y177D01*
X170Y173D01*
X172Y173D01*
X172Y171D01*
X174Y171D01*
X174Y167D01*
X176Y167D01*
X176Y163D01*
X178Y163D01*
X178Y159D01*
X180Y159D01*
X180Y153D01*
X182Y153D01*
X182Y143D01*
X1814Y143D01*
X1814Y145D01*
X1806Y145D01*
X1806Y147D01*
X1800Y147D01*
X1800Y149D01*
X1796Y149D01*
X1796Y151D01*
X1794Y151D01*
X1794Y153D01*
X1790Y153D01*
X1790Y155D01*
X1788Y155D01*
X1788Y157D01*
X1786Y157D01*
X1786Y159D01*
X1784Y159D01*
X1784Y161D01*
X1782Y161D01*
X1782Y165D01*
X1780Y165D01*
X1780Y169D01*
X1778Y169D01*
X1778Y171D01*
X1776Y171D01*
X1776Y179D01*
X1774Y179D01*
X1774Y181D01*
X166Y181D01*
G37*
D02*
G36*
X2266Y145D02*
X2266Y143D01*
X3434Y143D01*
X3434Y145D01*
X2266Y145D01*
G37*
D02*
G36*
X2266Y145D02*
X2266Y143D01*
X3434Y143D01*
X3434Y145D01*
X2266Y145D01*
G37*
D02*
G36*
X2266Y145D02*
X2266Y143D01*
X3434Y143D01*
X3434Y145D01*
X2266Y145D01*
G37*
D02*
G36*
X2266Y145D02*
X2266Y143D01*
X3434Y143D01*
X3434Y145D01*
X2266Y145D01*
G37*
D02*
G36*
X2266Y145D02*
X2266Y143D01*
X3434Y143D01*
X3434Y145D01*
X2266Y145D01*
G37*
D02*
G36*
X182Y143D02*
X182Y141D01*
X3434Y141D01*
X3434Y143D01*
X182Y143D01*
G37*
D02*
G36*
X182Y143D02*
X182Y141D01*
X3434Y141D01*
X3434Y143D01*
X182Y143D01*
G37*
D02*
G36*
X182Y143D02*
X182Y141D01*
X3434Y141D01*
X3434Y143D01*
X182Y143D01*
G37*
D02*
G36*
X182Y143D02*
X182Y141D01*
X3434Y141D01*
X3434Y143D01*
X182Y143D01*
G37*
D02*
G36*
X182Y143D02*
X182Y141D01*
X3434Y141D01*
X3434Y143D01*
X182Y143D01*
G37*
D02*
G36*
X182Y141D02*
X182Y127D01*
X180Y127D01*
X180Y121D01*
X178Y121D01*
X178Y117D01*
X176Y117D01*
X176Y113D01*
X174Y113D01*
X174Y111D01*
X172Y111D01*
X172Y107D01*
X170Y107D01*
X170Y105D01*
X168Y105D01*
X168Y103D01*
X166Y103D01*
X166Y101D01*
X164Y101D01*
X164Y99D01*
X160Y99D01*
X160Y97D01*
X158Y97D01*
X158Y95D01*
X154Y95D01*
X154Y93D01*
X150Y93D01*
X150Y91D01*
X146Y91D01*
X146Y89D01*
X136Y89D01*
X136Y87D01*
X3464Y87D01*
X3464Y89D01*
X3460Y89D01*
X3460Y91D01*
X3456Y91D01*
X3456Y93D01*
X3454Y93D01*
X3454Y95D01*
X3452Y95D01*
X3452Y97D01*
X3448Y97D01*
X3448Y101D01*
X3446Y101D01*
X3446Y103D01*
X3444Y103D01*
X3444Y105D01*
X3442Y105D01*
X3442Y109D01*
X3440Y109D01*
X3440Y113D01*
X3438Y113D01*
X3438Y117D01*
X3436Y117D01*
X3436Y123D01*
X3434Y123D01*
X3434Y141D01*
X182Y141D01*
G37*
D02*
G36*
X40Y87D02*
X40Y85D01*
X3468Y85D01*
X3468Y87D01*
X40Y87D01*
G37*
D02*
G36*
X40Y87D02*
X40Y85D01*
X3468Y85D01*
X3468Y87D01*
X40Y87D01*
G37*
D02*
G36*
X40Y85D02*
X40Y83D01*
X3474Y83D01*
X3474Y85D01*
X40Y85D01*
G37*
D02*
G36*
X40Y83D02*
X40Y81D01*
X3578Y81D01*
X3578Y83D01*
X40Y83D01*
G37*
D02*
G36*
X40Y83D02*
X40Y81D01*
X3578Y81D01*
X3578Y83D01*
X40Y83D01*
G37*
D02*
G36*
X40Y81D02*
X40Y41D01*
X3578Y41D01*
X3578Y81D01*
X40Y81D01*
G37*
D02*
G36*
X324Y2850D02*
X350Y2850D01*
X350Y2809D01*
X324Y2809D01*
X324Y2850D01*
G37*
D02*
G36*
X392Y2850D02*
X418Y2850D01*
X418Y2809D01*
X392Y2809D01*
X392Y2850D01*
G37*
D02*
G36*
X1224Y3550D02*
X1250Y3550D01*
X1250Y3508D01*
X1224Y3508D01*
X1224Y3550D01*
G37*
D02*
G36*
X1292Y3550D02*
X1318Y3550D01*
X1318Y3508D01*
X1292Y3508D01*
X1292Y3550D01*
G37*
D02*
G36*
X324Y3550D02*
X350Y3550D01*
X350Y3508D01*
X324Y3508D01*
X324Y3550D01*
G37*
D02*
G36*
X392Y3550D02*
X418Y3550D01*
X418Y3508D01*
X392Y3508D01*
X392Y3550D01*
G37*
D02*
G04 End of Copper0*
M02*